<?xml version="1.0" encoding="UTF-8"?>
<svg version="1.1" xmlns="http://www.w3.org/2000/svg" width="646" height="581">
<path d="M0 0 C213.18 0 426.36 0 646 0 C646 191.73 646 383.46 646 581 C432.82 581 219.64 581 0 581 C0 389.27 0 197.54 0 0 Z " fill="#E7E8E8" transform="translate(0,0)"/>
<path d="M0 0 C3.08819338 1.57509133 6.02552111 3.29497945 8.97851562 5.1105957 C10.60901855 6.06905396 10.60901855 6.06905396 12.27246094 7.046875 C14.49202129 8.35231756 16.70581779 9.6676124 18.91357422 10.99291992 C22.51529926 13.143833 26.15704623 15.21444736 29.81152344 17.27392578 C47.89618754 27.47904689 65.88008614 37.95319121 83.53613281 48.88452148 C87.62817295 51.41184434 91.75399095 53.86788017 95.91601562 56.27856445 C96.92220947 56.86347656 97.92840332 57.44838867 98.96508789 58.05102539 C100.93020492 59.19032519 102.89928294 60.32282822 104.87280273 61.44750977 C105.76233643 61.96410156 106.65187012 62.48069336 107.56835938 63.01293945 C108.75546509 63.6934436 108.75546509 63.6934436 109.96655273 64.38769531 C112.29418353 66.04034879 113.52944411 67.43869122 115.04101562 69.8605957 C115.42133236 72.30381584 115.42133236 72.30381584 115.42869568 75.08468628 C115.43860031 76.14169739 115.44850494 77.1987085 115.45870972 78.28775024 C115.45420807 79.44213593 115.44970642 80.59652161 115.44506836 81.78588867 C115.45193161 83.00578491 115.45879486 84.22568115 115.46586609 85.48254395 C115.48103357 88.82576662 115.48262732 92.16843184 115.4769237 95.5116477 C115.47383242 98.30481101 115.47992379 101.09792389 115.48596245 103.89108002 C115.50000982 110.48268653 115.49844538 117.07416346 115.48706055 123.66577148 C115.4755855 130.45960989 115.48964382 137.25305326 115.51645702 144.04683959 C115.53863274 149.88478587 115.54524703 155.72260833 115.53938061 161.56059372 C115.53601347 165.04508872 115.53840925 168.52933065 115.55563164 172.01379013 C115.5740083 175.90152136 115.55989431 179.78876919 115.54272461 183.67651367 C115.55722656 185.4020195 115.55722656 185.4020195 115.57202148 187.16238403 C115.51464964 193.36183338 115.25206176 197.17250556 111.04101562 201.8605957 C108.84399414 203.55712891 108.84399414 203.55712891 106.41992188 204.91137695 C105.49977295 205.43586426 104.57962402 205.96035156 103.6315918 206.50073242 C102.63232666 207.0526123 101.63306152 207.60449219 100.60351562 208.1730957 C98.42336615 209.41056341 96.24369939 210.64888184 94.06445312 211.88793945 C92.91686523 212.5348877 91.76927734 213.18183594 90.58691406 213.84838867 C85.20534459 216.89146074 79.87966455 220.03016266 74.55072021 223.16415405 C72.71373019 224.24428942 70.87579488 225.32279944 69.03759766 226.40087891 C60.84344612 231.20756941 52.65587765 236.02539006 44.47851562 240.8605957 C43.38982178 241.50383789 42.30112793 242.14708008 41.17944336 242.80981445 C35.21219919 246.34752208 29.27821733 249.93149234 23.37304688 253.5715332 C22.09320906 254.35803827 20.81334278 255.14449704 19.53344727 255.9309082 C17.09563154 257.4292849 14.66502465 258.93850942 12.23803711 260.4543457 C11.13661377 261.13239258 10.03519043 261.81043945 8.90039062 262.5090332 C7.93584961 263.10893066 6.97130859 263.70882813 5.97753906 264.3269043 C-1.0295887 267.9865964 -7.34656796 268.6794584 -14.95898438 266.8605957 C-19.29826529 264.97587919 -23.25154451 262.59479054 -27.27148438 260.1105957 C-28.99561117 259.08021709 -30.71974272 258.04984616 -32.44433594 257.02024841 C-34.18329492 255.97756941 -35.91636965 254.92573106 -37.64794922 253.87084961 C-41.5501082 251.50170221 -45.47968434 249.18199919 -49.41479492 246.86816406 C-52.09191979 245.29342794 -54.76412475 243.71060849 -57.43554688 242.1262207 C-72.70498749 233.08459737 -88.03797313 224.14388984 -103.49707031 215.42993164 C-106.34057023 213.82705123 -109.18101843 212.21884519 -112.02148438 210.6105957 C-112.92729248 210.10254395 -113.83310059 209.59449219 -114.76635742 209.07104492 C-128.02459196 201.55211743 -128.02459196 201.55211743 -130.95898438 193.8605957 C-131.53546131 189.82553494 -131.5058217 185.83308283 -131.4765625 181.76245117 C-131.48357178 180.5600177 -131.49058105 179.35758423 -131.49780273 178.11871338 C-131.51234336 174.83768481 -131.50900427 171.55730674 -131.49628639 168.27628851 C-131.48612052 164.83531225 -131.49556155 161.39437772 -131.50183105 157.95339966 C-131.50909513 152.1784084 -131.49955051 146.4036222 -131.48046875 140.62866211 C-131.45868151 133.9579875 -131.46576937 127.28780161 -131.48777437 120.61713874 C-131.50593933 114.88019411 -131.50848204 109.14339637 -131.4980197 103.40643227 C-131.49179334 99.98406788 -131.49092561 96.5619331 -131.50416565 93.13958359 C-131.51431095 89.32603515 -131.49885717 85.5134293 -131.4765625 81.69995117 C-131.48465942 80.56943329 -131.49275635 79.43891541 -131.50109863 78.2741394 C-131.41816841 70.62678855 -131.41816841 70.62678855 -129.08236694 66.72927856 C-126.718908 64.64931649 -124.4034038 63.08656485 -121.65429688 61.5480957 C-120.60725586 60.95432129 -119.56021484 60.36054687 -118.48144531 59.7487793 C-117.3602832 59.12567871 -116.23912109 58.50257812 -115.08398438 57.8605957 C-113.90913353 57.19727827 -112.73498836 56.53270954 -111.56152344 55.86694336 C-109.76786991 54.84934393 -107.97391133 53.83235645 -106.17785645 52.81900024 C-100.64514561 49.69619275 -95.17067014 46.48055571 -89.70898438 43.2355957 C-88.81840332 42.70772461 -87.92782227 42.17985352 -87.01025391 41.63598633 C-85.22139884 40.57558757 -83.43282269 39.51471815 -81.64453125 38.45336914 C-77.08618314 35.74985432 -72.52223963 33.0558163 -67.95898438 30.3605957 C-66.12824223 29.27858641 -64.29751306 28.19655517 -62.46679688 27.11450195 C-58.77517428 24.93296938 -55.08235405 22.75348287 -51.38867188 20.57543945 C-50.47005371 20.03298584 -49.55143555 19.49053223 -48.60498047 18.93164062 C-46.76868303 17.84911497 -44.93048418 16.76980777 -43.09033203 15.69384766 C-38.515184 13.00950395 -34.00160583 10.2657272 -29.55273438 7.3762207 C-28.67504395 6.81749268 -27.79735352 6.25876465 -26.89306641 5.68310547 C-25.24938872 4.63295192 -23.6186821 3.56205313 -22.00537109 2.46582031 C-14.94453197 -1.99896593 -7.92397616 -3.05125386 0 0 Z " fill="#162A40" transform="translate(367.958984375,44.139404296875)"/>
<path d="M0 0 C5.40978261 1.23483019 10.59415848 3.20225452 15.81103516 5.0703125 C18.39316675 5.9825917 20.97713791 6.88961091 23.56103516 7.796875 C24.21642776 8.02786896 24.87182037 8.25886292 25.54707336 8.49685669 C33.54215794 11.30617733 41.59943204 13.92838271 49.66577148 16.52539062 C64.52377319 21.39438632 64.52377319 21.39438632 68.79931641 26.10546875 C71.16062272 30.92036231 72.39743865 35.81666529 73.68603516 41.0078125 C74.2899647 43.34318452 74.89686735 45.6777892 75.50634766 48.01171875 C75.82635742 49.24035645 76.14636719 50.46899414 76.47607422 51.73486328 C78.23543547 58.33456845 80.14514958 64.88964707 82.06103516 71.4453125 C82.2539212 72.10701447 82.44680725 72.76871643 82.64553833 73.45046997 C84.93263824 81.29389214 87.25674779 89.1255695 89.62353516 96.9453125 C93.43640221 109.54509305 96.91935364 122.23910525 100.42626953 134.92675781 C101.04495684 137.16479753 101.6648208 139.40251231 102.28588867 141.63989258 C102.86463289 143.72491006 103.44085267 145.81063079 104.01391602 147.8972168 C105.69302915 153.94111178 107.56227767 159.88812098 109.60571289 165.8190918 C110.49182007 168.54962004 111.20950227 171.27826626 111.87353516 174.0703125 C113.35333725 180.2202427 115.17518383 186.24126387 117.02099609 192.28857422 C118.51086348 197.1985717 119.94107526 202.11931465 121.30322266 207.06640625 C121.75810059 208.71829956 121.75810059 208.71829956 122.22216797 210.40356445 C122.80719998 212.54007219 123.38755788 214.67786739 123.96240234 216.81713867 C127.23914202 230.15593022 127.23914202 230.15593022 135.49853516 240.5703125 C140.50922606 242.69528821 144.93192335 242.85269667 150.27272034 242.8218689 C151.14411571 242.82483904 152.01551108 242.82780917 152.91331238 242.83086932 C155.8266343 242.83849425 158.73975372 242.83202151 161.65307617 242.82568359 C163.74434546 242.82843412 165.83561371 242.8321144 167.92687988 242.83665466 C172.42687454 242.84476158 176.92681951 242.84693643 181.42682076 242.84470749 C188.5403614 242.84187466 195.65380271 242.85622438 202.76731873 242.87368774 C222.99403398 242.92072043 243.22074225 242.9446635 263.44750977 242.95117188 C274.62109187 242.95491897 285.7945614 242.972918 296.96809524 243.00626624 C304.04180357 243.026513 311.11522223 243.02883473 318.1889478 243.01798606 C322.58578621 243.01538356 326.98245503 243.02936004 331.37924957 243.04806709 C333.42025828 243.05340042 335.46129801 243.05187291 337.50229454 243.04303169 C340.28571515 243.03194539 343.06798375 243.0453013 345.85133362 243.06478882 C346.66144868 243.05566416 347.47156374 243.0465395 348.30622774 243.03713834 C352.08030278 243.08865957 354.26588777 243.42136293 357.47648525 245.47690773 C360.1120085 248.20543432 360.4591085 249.04790924 360.74853516 252.8828125 C360.47826898 256.86923865 360.03565529 258.52576834 357.49853516 261.5703125 C352.48740751 264.72042527 348.48878975 265.00079207 342.76472473 264.95799255 C341.46398176 264.96607086 341.46398176 264.96607086 340.13696116 264.97431237 C337.23756515 264.98859467 334.33862553 264.98148742 331.43920898 264.97436523 C329.35767246 264.98006881 327.27613906 264.98703302 325.1946106 264.99516296 C319.54353604 265.01311502 313.89261659 265.01192158 308.24152207 265.00622058 C303.52012282 265.00313036 298.79875343 265.00921964 294.07735842 265.01525933 C282.93378987 265.02931093 271.79029797 265.02773918 260.64672852 265.01635742 C249.16329329 265.00488744 237.68009191 265.01893171 226.19668752 265.0457539 C216.32894366 265.06793661 206.46127306 265.07454211 196.59350604 265.06867748 C190.70391569 265.06531144 184.81447509 265.06769913 178.92490578 265.08492851 C173.38197331 265.10043541 167.83938585 265.09640033 162.29646683 265.07762337 C160.26764808 265.07394725 158.23880357 265.07701729 156.21000862 265.08750916 C140.74415623 265.16135185 128.51555635 263.57755334 116.56103516 252.828125 C108.4888402 244.44278455 105.77929963 232.81110951 102.99853516 221.8203125 C102.39552404 219.50847215 101.79006537 217.19726879 101.18212891 214.88671875 C100.89321777 213.78859863 100.60430664 212.69047852 100.30664062 211.55908203 C99.3226815 207.91991962 98.22032229 204.34496697 97.06103516 200.7578125 C94.69362994 193.39945137 92.65589509 185.96508402 90.62353516 178.5078125 C88.18572583 169.57051295 85.6733936 160.67064004 82.93603516 151.8203125 C80.18236264 142.9172389 77.61846823 133.97310949 75.12768555 124.99316406 C73.09409758 117.67019613 71.00665725 110.36490587 68.87353516 103.0703125 C68.580354 102.06766357 68.28717285 101.06501465 67.98510742 100.03198242 C66.71771428 95.7064 65.44460197 91.38261437 64.15869141 87.0625 C61.02012574 76.50438485 58.09169158 65.89468565 55.22802734 55.25878906 C54.70940008 53.34743582 54.18321089 51.43812743 53.65185547 49.53027344 C53.37696289 48.5405957 53.10207031 47.55091797 52.81884766 46.53125 C52.56635254 45.62938965 52.31385742 44.7275293 52.05371094 43.79833984 C51.49853516 41.5703125 51.49853516 41.5703125 51.49853516 39.5703125 C50.68642578 39.46976563 49.87431641 39.36921875 49.03759766 39.265625 C44.76893015 38.42696847 40.92617106 36.99882293 36.87353516 35.4453125 C35.17880121 34.80705543 33.4834681 34.17038745 31.78759766 33.53515625 C30.91651367 33.2088623 30.04542969 32.88256836 29.14794922 32.54638672 C24.86996098 30.97032728 20.55844225 29.49377237 16.24853516 28.0078125 C10.11749425 25.87110211 3.99767312 23.7101286 -2.06396484 21.3828125 C-3.82933594 20.71185547 -3.82933594 20.71185547 -5.63037109 20.02734375 C-8.63025886 18.50495173 -9.91233523 17.50494211 -11.50146484 14.5703125 C-12.01190404 9.21070094 -11.96090815 5.92664851 -8.50146484 1.5703125 C-5.15596507 -0.66002069 -3.85840374 -0.6040004 0 0 Z " fill="#162A41" transform="translate(105.50146484375,69.4296875)"/>
<path d="M0 0 C2.06369948 0.87011577 4.00752797 1.81238906 5.96655273 2.8996582 C7.13782715 3.54608276 7.13782715 3.54608276 8.33276367 4.20556641 C9.17226563 4.67567139 10.01176758 5.14577637 10.87670898 5.63012695 C11.76132812 6.12150146 12.64594727 6.61287598 13.55737305 7.11914062 C36.16056025 19.7103517 58.56827817 32.68008939 80.69726562 46.0871582 C81.46288818 46.54993164 82.22851074 47.01270508 83.01733398 47.48950195 C83.68152344 47.89265625 84.34571289 48.29581055 85.0300293 48.71118164 C86.96381101 49.8318848 88.93014279 50.83936712 90.93920898 51.81762695 C90.93920898 52.47762695 90.93920898 53.13762695 90.93920898 53.81762695 C90.30756836 54.16841309 89.67592773 54.51919922 89.02514648 54.88061523 C76.34302243 61.93207722 63.71847118 69.06224411 51.20410156 76.40820312 C45.68698284 79.64281205 40.15441059 82.8470285 34.59545898 86.0090332 C33.97310867 86.36324341 33.35075836 86.71745361 32.70954895 87.08239746 C29.68896126 88.80067427 26.66642793 90.51540234 23.64111328 92.2253418 C22.53678955 92.85263184 21.43246582 93.47992188 20.29467773 94.1262207 C19.22781738 94.73191895 18.16095703 95.33761719 17.06176758 95.96166992 C13.06542881 98.3369762 9.25324609 100.95269353 5.46777344 103.64990234 C2.12334423 105.19440412 0.44905917 104.83167799 -3.06079102 103.81762695 C-5.77612305 102.48925781 -5.77612305 102.48925781 -8.56860352 100.7824707 C-9.62345947 100.14607666 -10.67831543 99.50968262 -11.76513672 98.85400391 C-12.32141754 98.51261383 -12.87769836 98.17122375 -13.45083618 97.81948853 C-16.4509279 95.9789897 -19.47016197 94.17027167 -22.48657227 92.35668945 C-23.1106749 91.98028824 -23.73477753 91.60388702 -24.37779236 91.21607971 C-30.97997676 87.24295759 -37.67078352 83.43067835 -44.37329102 79.63012695 C-53.90944177 74.21636782 -63.39072078 68.72248912 -72.78466797 63.06494141 C-78.41530391 59.69812926 -84.15412333 56.67222902 -90.06079102 53.81762695 C-88.6586786 49.61128971 -85.71709702 48.71642394 -81.99829102 46.75512695 C-75.47579666 43.2115255 -69.14766928 39.46217205 -62.90625 35.44433594 C-59.32650986 33.16094691 -55.69726912 31.05625332 -51.95532227 29.0480957 C-45.17080274 25.38789553 -38.62502785 21.35348254 -32.06079102 17.31762695 C-24.61964214 12.7426241 -17.17782373 8.2312399 -9.46313477 4.12426758 C-6.98638475 2.82688565 -6.98638475 2.82688565 -4.50219727 1.08911133 C-2.06079102 -0.18237305 -2.06079102 -0.18237305 0 0 Z " fill="#E7E7E8" transform="translate(360.060791015625,64.182373046875)"/>
<path d="M0 0 C3.76223254 1.22150094 7.12877674 2.47223235 10.546875 4.46875 C11.80056885 5.19421021 11.80056885 5.19421021 13.07958984 5.93432617 C13.9608252 6.45099854 14.84206055 6.9676709 15.75 7.5 C17.63223989 8.59083238 19.51506257 9.68065973 21.3984375 10.76953125 C22.33913086 11.31432129 23.27982422 11.85911133 24.24902344 12.42041016 C28.26393126 14.72573973 32.31796129 16.95745743 36.375 19.1875 C42.96147163 22.82396035 49.43848143 26.60688713 55.87109375 30.5078125 C61.90232814 34.16191542 67.98658527 37.72710071 74.06152344 41.30786133 C74.94485352 41.82888428 75.82818359 42.34990723 76.73828125 42.88671875 C77.51212158 43.34264404 78.28596191 43.79856934 79.08325195 44.26831055 C80.04577881 44.83976807 81.00830566 45.41122559 82 46 C82.83174744 46.24945374 83.66349487 46.49890747 84.52044678 46.75592041 C87.94684134 48.08063871 89.65937087 49.13264164 92 52 C93.95126228 59.03863372 93.15650247 66.8028072 92.9765625 74.0234375 C92.95790392 76.21201344 92.94367276 78.40063123 92.9336853 80.58926392 C92.89556021 86.34104377 92.79738322 92.09028541 92.68664551 97.84106445 C92.5842214 103.71270406 92.53864962 109.5847552 92.48828125 115.45703125 C92.38113477 126.9724675 92.21053596 138.48602244 92 150 C86.43839182 147.28573862 81.00519281 144.52788158 75.76953125 141.21484375 C68.81458994 136.86991557 61.76678684 132.70095922 54.6875 128.5625 C54.05148865 128.19016235 53.41547729 127.81782471 52.76019287 127.4342041 C43.94983045 122.27755161 35.10920167 117.18337447 26.18798828 112.22070312 C21.30413107 109.49594458 16.43391834 106.74691182 11.5625 104 C10.53527832 103.42282227 9.50805664 102.84564453 8.44970703 102.25097656 C7.49821777 101.7144043 6.54672852 101.17783203 5.56640625 100.625 C4.70990479 100.14289063 3.85340332 99.66078125 2.97094727 99.1640625 C1 98 1 98 0 97 C-0.09529612 93.98649762 -0.12551904 90.99595894 -0.11352539 87.98217773 C-0.11367142 87.03593536 -0.11381744 86.08969299 -0.1139679 85.11477661 C-0.11326836 81.97102608 -0.10547409 78.82733399 -0.09765625 75.68359375 C-0.09579221 73.51025932 -0.09436824 71.33692448 -0.09336853 69.16358948 C-0.08954221 63.43098805 -0.07971097 57.69841177 -0.06866455 51.96582031 C-0.05845287 46.12109721 -0.05387143 40.27637007 -0.04882812 34.43164062 C-0.0380888 22.954416 -0.02101102 11.47721009 0 0 Z " fill="#E7E7E8" transform="translate(258,135)"/>
<path d="M0 0 C0.30154824 12.50838702 0.53236058 25.01590647 0.67355824 37.52719116 C0.74133809 43.33730659 0.83321385 49.14493152 0.98071289 54.95361328 C1.12224127 60.56243211 1.19974589 66.16886058 1.23340416 71.77932739 C1.25737907 73.91665291 1.30420407 76.05385099 1.37449074 78.19015503 C1.89007096 94.51388602 1.89007096 94.51388602 -1.26940918 98.66972351 C-4.74614428 101.74764106 -8.6703231 103.36835421 -13 105 C-14.43422835 105.77502027 -15.85865137 106.56958071 -17.2578125 107.40625 C-18.54587291 108.10601438 -19.83496072 108.80389049 -21.125 109.5 C-32.9856282 116.00291851 -44.56428054 122.98859989 -56.18029785 129.9151001 C-61.12937537 132.86572238 -66.08065491 135.81262251 -71.03445435 138.75531006 C-72.77197915 139.78840713 -74.50795699 140.82410458 -76.24389648 141.85986328 C-77.30423096 142.49005371 -78.36456543 143.12024414 -79.45703125 143.76953125 C-80.38491455 144.32229736 -81.31279785 144.87506348 -82.26879883 145.44458008 C-85.13045176 147.07429232 -88.05009818 148.5374185 -91 150 C-91.23185564 137.47406502 -91.40946044 124.94864158 -91.51812172 112.42099667 C-91.57027913 106.60354178 -91.64100038 100.78755635 -91.75439453 94.97094727 C-91.86317517 89.35575023 -91.92286709 83.74196485 -91.94877243 78.12579536 C-91.96722861 75.9850091 -92.00327244 73.84429888 -92.05730057 71.70411491 C-92.46321583 54.95639074 -92.46321583 54.95639074 -88.92048645 50.21958923 C-86.34056221 48.37300009 -83.94349991 47.16159601 -81 46 C-79.9267749 45.33572998 -78.8535498 44.67145996 -77.74780273 43.98706055 C-76.81911377 43.45894775 -75.8904248 42.93083496 -74.93359375 42.38671875 C-73.88034912 41.78400146 -72.82710449 41.18128418 -71.74194336 40.56030273 C-70.1062439 39.63326538 -70.1062439 39.63326538 -68.4375 38.6875 C-66.69220449 37.69136131 -64.94788166 36.69353448 -63.20362854 35.6955719 C-61.49823645 34.71999289 -59.7920934 33.74572698 -58.0859375 32.77148438 C-54.18107787 30.52989723 -50.30690789 28.2395159 -46.4375 25.9375 C-38.40057378 21.17226072 -30.24380105 16.62349692 -22.07788086 12.08374023 C-15.76505821 8.57007119 -9.50906116 4.97626111 -3.29418945 1.29174805 C-1 0 -1 0 0 0 Z " fill="#E7E7E8" transform="translate(462,135)"/>
<path d="M0 0 C5.94 0 11.88 0 18 0 C18.33 9.9 18.66 19.8 19 30 C21.97 27.525 21.97 27.525 25 25 C30.41284799 21.37679546 37.77372373 22.48975537 44 23 C51.73624814 24.86698474 57.9729905 30.1379534 62.8125 36.3125 C67.90590125 47.83967125 69.18887614 60.01855691 64.875 72 C60.08786701 82.80447892 54.706558 87.62838087 44 92.3125 C36.87020667 93.94641097 30.52082395 93.38799331 24 90 C21 87.8125 21 87.8125 19 86 C18.67 87.65 18.34 89.3 18 91 C12.06 91 6.12 91 0 91 C0 60.97 0 30.94 0 0 Z " fill="#13283F" transform="translate(196,457)"/>
<path d="M0 0 C5.61 0 11.22 0 17 0 C17 13.2 17 26.4 17 40 C17.66 40 18.32 40 19 40 C19.27529541 39.41532959 19.55059082 38.83065918 19.83422852 38.22827148 C20.95804957 36.08018461 22.18419688 34.27248064 23.65234375 32.34765625 C24.17642822 31.65969971 24.7005127 30.97174316 25.24047852 30.26293945 C25.80049561 29.53679443 26.3605127 28.81064941 26.9375 28.0625 C27.51363037 27.31121826 28.08976074 26.55993652 28.68334961 25.78588867 C33.16907793 19.97803798 37.83923427 14.36340489 42.66015625 8.83203125 C45.12539736 6.0719136 45.12539736 6.0719136 46.63671875 2.66015625 C49 0 49 0 51.27954102 -0.47241211 C54.12638203 -0.59189772 56.90467524 -0.52275987 59.75 -0.375 C61.22533203 -0.33439453 61.22533203 -0.33439453 62.73046875 -0.29296875 C65.15587423 -0.22232587 67.57681945 -0.12376119 70 0 C66.57247273 5.39668466 62.89122424 10.53840314 58.9375 15.5625 C58.47915771 16.14652588 58.02081543 16.73055176 57.54858398 17.33227539 C54.8813392 20.70344538 52.15379254 24.01129219 49.36328125 27.28125 C48.76201416 27.99466553 48.16074707 28.70808105 47.54125977 29.44311523 C46.36584655 30.83384198 45.17784189 32.21404357 43.97631836 33.58227539 C40.8438775 37.15521217 40.8438775 37.15521217 39.90625 41.64453125 C41.22418936 44.4828078 42.79371915 46.67607908 44.75 49.125 C48.8661876 54.39947349 52.6855959 59.83615993 56.4375 65.375 C60.88399617 71.93676258 65.39436774 78.43656312 70.10522461 84.81201172 C73 88.78542327 73 88.78542327 73 91 C54.58188573 93.3560301 54.58188573 93.3560301 49.15380859 89.78564453 C46.01555778 86.41352609 44.1032588 82.3393798 42.13476562 78.21240234 C40.14599898 74.33499199 37.58067731 70.85925178 35.0625 67.3125 C34.15631611 65.99694426 33.25129258 64.68058817 32.34765625 63.36328125 C31.00343687 61.41499027 29.63947325 59.53713017 28.18359375 57.66796875 C27 56 27 56 27 54 C26.2575 54.7425 25.515 55.485 24.75 56.25 C22 59 22 59 19.86621094 60.76464844 C17.37111564 63.75327907 17.46080238 65.65586904 17.390625 69.515625 C17.35839844 70.76601563 17.32617188 72.01640625 17.29296875 73.3046875 C17.27169922 75.25761719 17.27169922 75.25761719 17.25 77.25 C17.20552734 79.22613281 17.20552734 79.22613281 17.16015625 81.2421875 C17.08945464 84.49446134 17.0424643 87.74723492 17 91 C11.39 91 5.78 91 0 91 C0 60.97 0 30.94 0 0 Z " fill="#12263D" transform="translate(45,457)"/>
<path d="M0 0 C8.01082362 5.12290915 13.63075975 11.12998878 16.8125 20.25 C16.8125 21.9 16.8125 23.55 16.8125 25.25 C10.5425 25.25 4.2725 25.25 -2.1875 25.25 C-5.1875 19.25 -5.1875 19.25 -5.1875 17.25 C-5.72375 16.981875 -6.26 16.71375 -6.8125 16.4375 C-8.61257716 15.53746142 -10.40254333 14.61716493 -12.1875 13.6875 C-18.34811222 10.73553998 -24.08450898 10.70561561 -30.75 11.875 C-38.39316017 14.93226407 -42.65226926 20.14547772 -46.0703125 27.58203125 C-49.11072918 37.56437831 -48.86126234 48.61011847 -44.25 58.0625 C-40.32183763 64.91078308 -35.63127616 68.76874128 -28.1875 71.25 C-20.7639392 71.76196971 -13.92214419 70.61532667 -7.875 66 C-4.5662916 62.84541651 -4.5662916 62.84541651 -1.1875 56.25 C5.0825 56.25 11.3525 56.25 17.8125 56.25 C15.18327813 68.08149839 10.51388455 75.64537697 0.3125 82.375 C-10.29773499 88.50114758 -22.2917539 89.63628229 -34.125 87.1875 C-45.10556841 84.14672721 -53.55486436 77.41825088 -60.1875 68.25 C-67.1586569 55.85872601 -69.93229456 41.16979067 -66.27734375 27.21484375 C-61.96427953 14.46980833 -55.19990284 4.72231286 -43.125 -1.5625 C-29.1409348 -8.38002264 -13.41093782 -7.51977623 0 0 Z " fill="#15283E" transform="translate(409.1875,461.75)"/>
<path d="M0 0 C4.14989512 3.21337635 6.50137563 6.61957294 7.94921875 11.7109375 C8.34966873 15.73499759 8.29899514 19.72902079 8.2421875 23.76953125 C8.23794266 24.91382095 8.23369781 26.05811066 8.22932434 27.23707581 C8.21259679 30.87444061 8.1749544 34.51124152 8.13671875 38.1484375 C8.12166431 40.62173676 8.10797723 43.09504475 8.09570312 45.56835938 C8.06271248 51.61610108 8.01097008 57.66342384 7.94921875 63.7109375 C2.33921875 63.7109375 -3.27078125 63.7109375 -9.05078125 63.7109375 C-9.38078125 61.7309375 -9.71078125 59.7509375 -10.05078125 57.7109375 C-10.85515625 58.4740625 -11.65953125 59.2371875 -12.48828125 60.0234375 C-18.5081735 65.00932473 -25.41516637 66.32671289 -33.05078125 65.7109375 C-40.18366172 64.33441671 -45.06565495 61.32294579 -49.42578125 55.5859375 C-52.53934619 50.07732261 -52.79707431 44.91873885 -52.05078125 38.7109375 C-49.89108618 33.0882831 -46.41990461 29.44615129 -41.05078125 26.7109375 C-34.01405522 23.74297187 -26.65006614 23.0663643 -19.12011719 22.35693359 C-14.95372646 22.05339811 -14.95372646 22.05339811 -11.05078125 20.7109375 C-10.71697311 17.33657564 -10.71697311 17.33657564 -11.05078125 13.7109375 C-13.30758053 11.35718742 -14.71707605 10.756626 -17.9609375 10.3125 C-19.00121094 10.32023437 -20.04148437 10.32796875 -21.11328125 10.3359375 C-22.15613281 10.32820313 -23.19898438 10.32046875 -24.2734375 10.3125 C-27.04559198 10.48631353 -27.04559198 10.48631353 -28.859375 12.046875 C-30.24973122 13.81587743 -30.24973122 13.81587743 -31.05078125 16.7109375 C-36.99078125 16.7109375 -42.93078125 16.7109375 -49.05078125 16.7109375 C-47.99073741 8.23058681 -47.01056967 6.04400214 -41.05078125 0.7109375 C-30.55431332 -7.00574549 -11.00426234 -6.9169649 0 0 Z " fill="#14263C" transform="translate(487.05078125,484.2890625)"/>
<path d="M0 0 C6.16504529 4.62707024 9.18654856 11.41806926 11.01953125 18.75 C11.01953125 24.03 11.01953125 29.31 11.01953125 34.75 C-4.16046875 34.75 -19.34046875 34.75 -34.98046875 34.75 C-32.2153939 43.16648801 -32.2153939 43.16648801 -26.98046875 48.75 C-22.15596699 50.35816725 -17.79113495 50.55474053 -13.16796875 48.5 C-10.88618363 46.92189794 -10.88618363 46.92189794 -9.91796875 44.65625 C-7.596991 42.37270737 -6.91045679 42.45180756 -3.75 42.359375 C-2.09720474 42.38592593 -0.44464212 42.43357539 1.20703125 42.5 C2.05201172 42.51804687 2.89699219 42.53609375 3.76757812 42.5546875 C5.85204698 42.60179414 7.93593269 42.67353767 10.01953125 42.75 C8.67350809 50.45080558 4.3927418 54.99180063 -1.42578125 59.98046875 C-8.24673019 64.705071 -16.8700504 65.67251204 -24.98046875 64.75 C-34.60355174 62.99235927 -41.59434751 58.13336461 -47.73046875 50.61328125 C-49.82863446 47.48570298 -50.86083094 44.34462665 -51.98046875 40.75 C-52.16351563 40.16734375 -52.3465625 39.5846875 -52.53515625 38.984375 C-54.44579154 29.39767865 -53.90093922 18.28846346 -48.98046875 9.75 C-37.15672878 -6.34215575 -17.28512257 -10.90974206 0 0 Z " fill="#14263C" transform="translate(322.98046875,485.25)"/>
<path d="M0 0 C6.51644014 4.42356885 10.42828333 10.03328651 13.3125 17.3125 C15.35646262 28.27557221 13.59829153 36.95084242 7.4609375 46.359375 C2.59791729 52.49000711 -4.27756057 56.55113707 -12 58 C-22.16464032 58.84016675 -29.77008557 57.52013471 -38.25 51.8125 C-45.46347399 44.43508342 -49.2802219 37.06158561 -49.3125 26.625 C-49.18742625 15.99631013 -46.60464976 10.92052946 -39.26171875 3.19921875 C-27.29516249 -8.43665548 -13.68897318 -8.42993264 0 0 Z " fill="#14283F" transform="translate(429,352)"/>
<path d="M0 0 C6.98405141 4.98575344 11.77052429 11.7037779 14 20 C15.25359454 29.91682826 14.03202189 38.20280724 8.3046875 46.4375 C2.99919134 52.96734143 -3.10014967 56.36671656 -11 59 C-21.96370817 59.85962236 -29.56425702 58.74436305 -38.1875 51.875 C-44.42776956 46.08402984 -48.56869702 39.14857498 -49.16796875 30.60546875 C-49.25708944 19.57232755 -46.61998721 12.37266406 -39.25 4.015625 C-27.83800489 -7.11107024 -13.61697633 -6.58487983 0 0 Z " fill="#152940" transform="translate(294,351)"/>
<path d="M0 0 C5.61 0 11.22 0 17 0 C17.01401855 1.94434937 17.01401855 1.94434937 17.02832031 3.92797852 C17.06832288 8.75709856 17.1341106 13.58558842 17.20751953 18.41430664 C17.23566962 20.50048704 17.2569137 22.58677292 17.27099609 24.6730957 C17.29250802 27.67974615 17.33920124 30.68513641 17.390625 33.69140625 C17.39185364 34.61772354 17.39308228 35.54404083 17.39434814 36.49842834 C17.52830464 42.47922996 18.49828682 46.10341862 22 51 C24.58120066 52.29060033 26.49419829 52.13272333 29.375 52.125 C30.33148438 52.12757813 31.28796875 52.13015625 32.2734375 52.1328125 C34.7060127 52.0143203 36.70896513 51.8104341 39 51 C41.28201122 47.3968244 42.12065376 43.84169135 42.20532227 39.62036133 C42.22526749 38.73967484 42.24521271 37.85898834 42.26576233 36.95161438 C42.29083107 35.53117073 42.29083107 35.53117073 42.31640625 34.08203125 C42.33718735 33.10965012 42.35796844 32.13726898 42.37937927 31.13542175 C42.44478748 28.02785335 42.50371929 24.92020015 42.5625 21.8125 C42.60569351 19.70637142 42.64930807 17.60025144 42.69335938 15.49414062 C42.80045999 10.32951409 42.90175219 5.16480222 43 0 C48.94 0 54.88 0 61 0 C61 22.11 61 44.22 61 67 C55.39 67 49.78 67 44 67 C43.505 64.03 43.505 64.03 43 61 C42.50371094 61.40992188 42.00742188 61.81984375 41.49609375 62.2421875 C35.40760935 67.07138386 30.09847262 69.48648464 22.11328125 69.25390625 C16.01489731 68.52119838 10.26832104 66.49904109 6 62 C0.38759389 54.63637603 -0.84632517 48.77843383 -0.5859375 39.6484375 C-0.57744781 38.50839264 -0.56895813 37.36834778 -0.56021118 36.1937561 C-0.52687976 32.58650375 -0.4516329 28.98156576 -0.375 25.375 C-0.34487448 22.91539708 -0.31750325 20.45575879 -0.29296875 17.99609375 C-0.22715392 11.99651706 -0.12376856 5.99864959 0 0 Z " fill="#17293F" transform="translate(123,481)"/>
<path d="M0 0 C5.94 0 11.88 0 18 0 C18.33 9.9 18.66 19.8 19 30 C21.97 27.525 21.97 27.525 25 25 C30.41284799 21.37679546 37.77372373 22.48975537 44 23 C51.73624814 24.86698474 57.9729905 30.1379534 62.8125 36.3125 C67.90590125 47.83967125 69.18887614 60.01855691 64.875 72 C60.08786701 82.80447892 54.706558 87.62838087 44 92.3125 C36.60058395 94.00819951 30.87084747 93.08003507 24 90 C22.515 89.01 22.515 89.01 21 88 C21.33 86.68 21.66 85.36 22 84 C22 84.66 22 85.32 22 86 C22.66 86 23.32 86 24 86 C24.144375 85.2575 24.28875 84.515 24.4375 83.75 C24.90199226 81.47914894 25.42905436 79.24539967 26 77 C26.86882812 77.05800781 27.73765625 77.11601563 28.6328125 77.17578125 C36.01280735 77.7359481 36.01280735 77.7359481 42.625 75.0625 C48.16918052 67.91342512 49.04894705 59.8630133 48 51 C46.74421461 46.23227243 44.94183013 42.96537588 41.5 39.4375 C36.35939289 37.32617922 31.48382046 37.68055415 26 38 C25.67 37.34 25.34 36.68 25 36 C25.66 36 26.32 36 27 36 C27 35.34 27 34.68 27 34 C25.68 34.66 24.36 35.32 23 36 C23 35.34 23 34.68 23 34 C20.69 34 18.38 34 16 34 C15.26919734 32.02253397 14.60578253 30.01927511 14 28 C14.33 27.34 14.66 26.68 15 26 C15.15344209 24.11527141 15.24959571 22.22572126 15.31640625 20.3359375 C15.35830078 19.21445312 15.40019531 18.09296875 15.44335938 16.9375 C15.48267578 15.761875 15.52199219 14.58625 15.5625 13.375 C15.60568359 12.19164062 15.64886719 11.00828125 15.69335938 9.7890625 C15.79967338 6.85952093 15.90036217 3.92977623 16 1 C11.38 1 6.76 1 2 1 C2 30.37 2 59.74 2 90 C6.62 90 11.24 90 16 90 C16 88.35 16 86.7 16 85 C16.33 85 16.66 85 17 85 C17 86.98 17 88.96 17 91 C11.39 91 5.78 91 0 91 C0 60.97 0 30.94 0 0 Z " fill="#16283C" transform="translate(196,457)"/>
<path d="M0 0 C5.94 0 11.88 0 18 0 C18 5.61 18 11.22 18 17 C22.29 17 26.58 17 31 17 C31 21.62 31 26.24 31 31 C26.71 31 22.42 31 18 31 C18.09354152 35.92994256 18.19963642 40.85939439 18.31738281 45.78881836 C18.35566993 47.46582634 18.39052331 49.14291638 18.421875 50.82006836 C18.46753179 53.23060432 18.5255241 55.64057557 18.5859375 58.05078125 C18.59748871 58.80087967 18.60903992 59.55097809 18.62094116 60.32380676 C18.72695459 64.06127713 18.87619082 65.81428623 21 69 C23.42521494 69.58189266 23.42521494 69.58189266 26.125 69.6875 C27.73375 69.790625 29.3425 69.89375 31 70 C31 74.62 31 79.24 31 84 C23.94370257 86.35209914 15.7214178 85.6533416 8.8359375 82.96875 C4.04896513 80.4428582 2.41862885 76.1290893 0.63070679 71.24560547 C-0.43054432 67.46706473 -0.36940503 63.80566844 -0.29296875 59.90625 C-0.28872391 59.07411987 -0.28447906 58.24198975 -0.28010559 57.38464355 C-0.26346307 54.75608407 -0.22583976 52.12832333 -0.1875 49.5 C-0.17243444 47.70574033 -0.15874933 45.9114685 -0.14648438 44.1171875 C-0.11360714 39.74448917 -0.06192722 35.37237947 0 31 C-2.97 31 -5.94 31 -9 31 C-9 26.38 -9 21.76 -9 17 C-6.03 17 -3.06 17 0 17 C0 11.39 0 5.78 0 0 Z " fill="#16293F" transform="translate(564,464)"/>
<path d="M0 0 C0 5.61 0 11.22 0 17 C-2.784375 17.1546875 -2.784375 17.1546875 -5.625 17.3125 C-11.42145928 17.80407252 -15.76473333 18.53349885 -19.8125 23 C-21.62744315 26.05674636 -22.13028082 28.62018104 -22.20532227 32.10424805 C-22.22526749 32.92487228 -22.24521271 33.74549652 -22.26576233 34.59098816 C-22.29083107 35.9129998 -22.29083107 35.9129998 -22.31640625 37.26171875 C-22.33718735 38.16751175 -22.35796844 39.07330475 -22.37937927 40.00654602 C-22.44476558 42.90012016 -22.50370904 45.79378507 -22.5625 48.6875 C-22.6056956 50.64909793 -22.64931023 52.61068668 -22.69335938 54.57226562 C-22.80122443 59.38141874 -22.90037907 64.19064073 -23 69 C-28.94 69 -34.88 69 -41 69 C-41 46.56 -41 24.12 -41 1 C-35.39 1 -29.78 1 -24 1 C-23.67 3.64 -23.34 6.28 -23 9 C-22.505 8.2575 -22.01 7.515 -21.5 6.75 C-15.24265792 -0.13307629 -8.97614782 -0.44880739 0 0 Z " fill="#1E2F46" transform="translate(548,480)"/>
<path d="M0 0 C4.34729658 4.03677539 7.35650344 8.99867864 7.828125 15.0390625 C7.95632019 23.30765247 7.65913358 30.75163219 1.6875 37 C-2.42848862 40.13515729 -6.5213301 40.23278456 -11.5625 39.94921875 C-16.03588517 39.13531117 -17.48800704 37.99072211 -20.375 34.4375 C-24.53105011 27.0951448 -24.15037681 18.63795259 -23.375 10.4375 C-22.06614927 5.99125708 -19.86732467 2.50757887 -16.375 -0.5625 C-10.80679128 -2.41856957 -5.34390298 -2.47402916 0 0 Z " fill="#E6E7E8" transform="translate(237.375,495.5625)"/>
<path d="M0 0 C2.625 2.25 2.625 2.25 4 4 C3.01 5.98 2.02 7.96 1 10 C0.34 10 -0.32 10 -1 10 C-1.185625 11.2375 -1.185625 11.2375 -1.375 12.5 C-2.06619639 16.37069981 -3.04636703 20.1854681 -4 24 C-13.57 24 -23.14 24 -33 24 C-30.75 15 -30.75 15 -28 11 C-30.97 10.505 -30.97 10.505 -34 10 C-34.33 10.66 -34.66 11.32 -35 12 C-35.45375 11.195625 -35.9075 10.39125 -36.375 9.5625 C-37.74725665 6.91143428 -37.74725665 6.91143428 -40 6 C-40 6.66 -40 7.32 -40 8 C-41.65 8.33 -43.3 8.66 -45 9 C-34.51047642 -4.78736622 -15.37879146 -9.38581912 0 0 Z " fill="#16283E" transform="translate(321,484)"/>
<path d="M0 0 C0 5.61 0 11.22 0 17 C-2.784375 17.1546875 -2.784375 17.1546875 -5.625 17.3125 C-11.42145928 17.80407252 -15.76473333 18.53349885 -19.8125 23 C-21.60710442 26.02249165 -22.12922178 28.56618651 -22.20532227 32.01245117 C-22.22526749 32.81305466 -22.24521271 33.61365814 -22.26576233 34.43852234 C-22.29083107 35.72772331 -22.29083107 35.72772331 -22.31640625 37.04296875 C-22.33718735 37.9265657 -22.35796844 38.81016266 -22.37937927 39.72053528 C-22.44475754 42.54277785 -22.50370528 45.36511335 -22.5625 48.1875 C-22.60569637 50.10092106 -22.64931102 52.01433273 -22.69335938 53.92773438 C-22.80042695 58.61839437 -22.90172752 63.30914783 -23 68 C-28.61 68 -34.22 68 -40 68 C-40 46.22 -40 24.44 -40 2 C-39.67 2 -39.34 2 -39 2 C-39 23.45 -39 44.9 -39 67 C-34.38 67 -29.76 67 -25 67 C-25.00523682 65.94087402 -25.01047363 64.88174805 -25.01586914 63.79052734 C-25.03403406 59.84327039 -25.04547389 55.8960171 -25.05493164 51.94873047 C-25.05994564 50.24364601 -25.0667585 48.53856582 -25.07543945 46.83349609 C-25.08763385 44.37596581 -25.09325775 41.91849262 -25.09765625 39.4609375 C-25.10281754 38.70444916 -25.10797882 37.94796082 -25.11329651 37.16854858 C-25.11364055 33.88765872 -24.96946725 30.82520905 -24.40405273 27.58837891 C-24.27071533 26.73421387 -24.13737793 25.88004883 -24 25 C-25.31318262 23.10041919 -25.31318262 23.10041919 -27 22 C-26.67 21.34 -26.34 20.68 -26 20 C-25.7834375 18.8553125 -25.7834375 18.8553125 -25.5625 17.6875 C-24.37188322 11.9989976 -22.07757154 6.36456442 -17.34765625 2.73046875 C-11.62835617 -0.57947383 -6.49580469 -0.32479023 0 0 Z " fill="#0F1E32" transform="translate(548,480)"/>
<path d="M0 0 C2.9689119 2.496585 3.97995813 3.54785088 4.75 7.3125 C4.81208734 11.67635338 4.2381721 14.57236811 1.8125 18.25 C-1.01153333 21.07403333 -2.66941795 21.50068309 -6.5625 21.625 C-9.98514671 21.58648147 -11.14668795 21.37404761 -14.1875 19.5625 C-17.24092049 16.23149583 -18.12145424 14.46941184 -18.625 9.9375 C-18.17573223 5.5945782 -17.0837428 3.60576866 -14.25 0.3125 C-9.33653194 -2.5321394 -5.01289867 -2.60285123 0 0 Z " fill="#E3E4E6" transform="translate(283.25,368.6875)"/>
<path d="M0 0 C3 2.4375 3 2.4375 5 5 C5.33 5.33 5.66 5.66 6 6 C6.53798008 10.08096316 6.93436984 14.24979978 4.953125 17.9609375 C1.83734958 21.71819609 0.01263321 22.90039673 -4.8125 23.375 C-8.37442635 23.34267762 -8.90960737 23.07270712 -11.875 20.6875 C-15.05496584 16.66577849 -16.5009002 14.31140088 -16.39453125 9.0703125 C-15.69325942 5.39037119 -13.64365677 3.58071256 -11 1 C-7.53003768 -0.73498116 -3.78492805 -0.60794181 0 0 Z " fill="#E0E2E4" transform="translate(416,367)"/>
<path d="M0 0 C0.5862069 9.96551724 0.5862069 9.96551724 -3 14 C-6.75343744 17.05178135 -9.85352789 18.84454615 -14.6875 19.5 C-18.52276727 18.92109173 -21.23535128 17.76464872 -24 15 C-24.203125 13.0390625 -24.203125 13.0390625 -24.25 10.625 C-24.27578125 9.83351563 -24.3015625 9.04203125 -24.328125 8.2265625 C-24 6 -24 6 -22.90625 4.31640625 C-20.16057389 2.42031434 -17.5088152 1.97335416 -14.25 1.3125 C-13.05890625 1.06113281 -11.8678125 0.80976562 -10.640625 0.55078125 C-7.0320937 0.00485538 -3.64324244 -0.0980873 0 0 Z " fill="#E2E5E6" transform="translate(477,518)"/>
<path d="M0 0 C2.7415171 2.35897983 4.26702231 3.99805206 5.6875 7.3125 C5.6875 9.2925 5.6875 11.2725 5.6875 13.3125 C-3.5525 13.3125 -12.7925 13.3125 -22.3125 13.3125 C-19.94457547 3.84080189 -19.94457547 3.84080189 -16.3125 0.3125 C-10.96150543 -2.8089135 -5.3717634 -2.73655871 0 0 Z " fill="#E4E4E6" transform="translate(310.3125,494.6875)"/>
<path d="M0 0 C1.2065625 0.0309375 1.2065625 0.0309375 2.4375 0.0625 C0.05481041 2.83768456 -0.36147528 3.04250492 -4.2737608 3.43164349 C-5.86496975 3.44429224 -7.45636139 3.44013946 -9.04753113 3.42326355 C-9.92397461 3.42582682 -10.80041809 3.4283901 -11.70342046 3.43103105 C-14.65166764 3.43598778 -17.59940712 3.41944488 -20.54760742 3.40307617 C-22.65639738 3.40223031 -24.76518822 3.40270424 -26.87397766 3.40440369 C-32.60923121 3.40526665 -38.34429764 3.38759212 -44.07950759 3.36668181 C-50.06929696 3.34796519 -56.05909032 3.34616854 -62.04890442 3.34260559 C-73.39612194 3.33327037 -84.74325305 3.30863659 -96.09043247 3.27855712 C-109.00681005 3.24505907 -121.92319169 3.22853867 -134.83960187 3.21347082 C-161.41394921 3.18208833 -187.98821977 3.12929914 -214.5625 3.0625 C-214.5625 2.7325 -214.5625 2.4025 -214.5625 2.0625 C-212.93272642 2.05615209 -212.93272642 2.05615209 -211.27002811 2.04967594 C-184.87378022 1.94663656 -158.47756048 1.8379083 -132.08136082 1.72316074 C-119.31653842 1.66780318 -106.55171324 1.61431709 -93.78686523 1.56518555 C-82.66540654 1.52237467 -71.54396865 1.47610462 -60.42254204 1.42562145 C-54.52989122 1.39899549 -48.63724459 1.37414188 -42.74456978 1.35342598 C-37.20512562 1.33389734 -31.66572112 1.3097651 -26.12631226 1.28200912 C-24.0868546 1.27261863 -22.04738823 1.2649506 -20.0079174 1.25908089 C-17.23627777 1.25085351 -14.4647353 1.23658665 -11.69313049 1.22071838 C-10.46601462 1.21925122 -10.46601462 1.21925122 -9.21410853 1.21775442 C-5.71728285 1.19177952 -3.1795145 0.07754913 0 0 Z " fill="#0E1928" transform="translate(459.5625,329.9375)"/>
<path d="M0 0 C5.61 0 11.22 0 17 0 C17 5.28 17 10.56 17 16 C21.29 16 25.58 16 30 16 C30 20.29 30 24.58 30 29 C29.34 29 28.68 29 28 29 C27.505 24.05 27.505 24.05 27 19 C25.82630859 18.90912109 25.82630859 18.90912109 24.62890625 18.81640625 C23.61699219 18.73261719 22.60507812 18.64882813 21.5625 18.5625 C20.04849609 18.44068359 20.04849609 18.44068359 18.50390625 18.31640625 C16 18 16 18 15 17 C14.92680379 14.30345146 14.90757463 11.63308542 14.9375 8.9375 C14.94201172 8.17888672 14.94652344 7.42027344 14.95117188 6.63867188 C14.9629932 4.75908129 14.98092922 2.87953101 15 1 C10.38 1 5.76 1 1 1 C1 6.28 1 11.56 1 17 C0.67 17 0.34 17 0 17 C0 11.39 0 5.78 0 0 Z " fill="#141F2D" transform="translate(565,465)"/>
<path d="M0 0 C1.98362069 2.91708924 1.9876191 4.12380904 1.625 7.75 C1.315625 9.35875 1.315625 9.35875 1 11 C0.01 10.67 -0.98 10.34 -2 10 C-2.33 11.32 -2.66 12.64 -3 14 C-8.61 13.67 -14.22 13.34 -20 13 C-19.01 12.34 -18.02 11.68 -17 11 C-17 10.34 -17 9.68 -17 9 C-11.17521449 5.96098148 -6.51791392 5.6459081 0 6 C0 4.02 0 2.04 0 0 Z " fill="#E5E6E8" transform="translate(336,515)"/>
<path d="M0 0 C2.31 0.33 4.62 0.66 7 1 C7 5.62 7 10.24 7 15 C9.97 15 12.94 15 16 15 C16 15.33 16 15.66 16 16 C10.72 16.33 5.44 16.66 0 17 C0 11.39 0 5.78 0 0 Z " fill="#CBCDD2" transform="translate(548,480)"/>
<path d="M0 0 C1.74271938 2.297221 3.39911152 4.59866729 5 7 C6.175625 7.495 7.35125 7.99 8.5625 8.5 C9.696875 8.995 10.83125 9.49 12 10 C12.33 10.99 12.66 11.98 13 13 C13.99 12.67 14.98 12.34 16 12 C16.99 12.66 17.98 13.32 19 14 C19 14.66 19 15.32 19 16 C22.63 16.33 26.26 16.66 30 17 C30.33 16.01 30.66 15.02 31 14 C33.31 14 35.62 14 38 14 C38 14.66 38 15.32 38 16 C31.32898951 19.13487335 23.47005318 19.10756511 16.3671875 17.34765625 C9.71412344 14.64702223 3.9737836 9.9606754 0 4 C0 2.68 0 1.36 0 0 Z " fill="#182435" transform="translate(250,392)"/>
<path d="M0 0 C0.66 0 1.32 0 2 0 C1.55773258 2.57989327 1.09277201 4.80316813 -0.02734375 7.1796875 C-1.27326667 10.79236361 -1.2540185 14.16695123 -1.1875 17.9375 C-1.18685547 18.62779297 -1.18621094 19.31808594 -1.18554688 20.02929688 C-1.15068673 24.11567997 -0.78419348 27.99120291 0 32 C-0.66 32 -1.32 32 -2 32 C-4.50781995 28.21368361 -4.19371108 24.42427445 -4.0625 20.0625 C-3.90247789 14.58718476 -3.90247789 14.58718476 -4.578125 9.1640625 C-5 7 -5 7 -3.6875 4.3125 C-2 2 -2 2 0 0 Z " fill="#212B3A" transform="translate(216,496)"/>
<path d="M0 0 C3.82172593 0.53756145 5.2316072 1.99643344 7.5625 5 C13.19080416 12.65739235 15.25275804 20.48229278 14 30 C13.34 30.66 12.68 31.32 12 32 C11.34 26.72 10.68 21.44 10 16 C9.67 16 9.34 16 9 16 C8.773125 14.783125 8.54625 13.56625 8.3125 12.3125 C7.27164511 8.01992326 5.29927972 5.95198712 2 3 C2 2.34 2 1.68 2 1 C1.34 0.67 0.68 0.34 0 0 Z " fill="#242F3C" transform="translate(429,354)"/>
<path d="M0 0 C6.6 0 13.2 0 20 0 C14.375 8.75 14.375 8.75 11 11 C11 10.34 11 9.68 11 9 C10.34 8.67 9.68 8.34 9 8 C9 7.34 9 6.68 9 6 C10.32 5.67 11.64 5.34 13 5 C13 4.34 13 3.68 13 3 C10.35541621 1.67770811 8.32238699 1.90322806 5.375 1.9375 C3.87066406 1.95103516 3.87066406 1.95103516 2.3359375 1.96484375 C1.17964844 1.98224609 1.17964844 1.98224609 0 2 C0 1.34 0 0.68 0 0 Z " fill="#131D2B" transform="translate(95,457)"/>
<path d="M0 0 C0.66 0 1.32 0 2 0 C1.67 0.66 1.34 1.32 1 2 C0.67 1.34 0.34 0.68 0 0 Z M-2 -1 C-1.01 0.32 -0.02 1.64 1 3 C-1.40435006 4.20217503 -2.68381369 4.03897118 -5.3515625 3.87890625 C-6.20234375 3.83056641 -7.053125 3.78222656 -7.9296875 3.73242188 C-8.81914062 3.67634766 -9.70859375 3.62027344 -10.625 3.5625 C-11.5221875 3.51029297 -12.419375 3.45808594 -13.34375 3.40429688 C-15.56284012 3.2744565 -17.78149871 3.13948661 -20 3 C-20 2.67 -20 2.34 -20 2 C-14.06 2 -8.12 2 -2 2 C-2 1.01 -2 0.02 -2 -1 Z M-14 4 C-9.71 4 -5.42 4 -1 4 C-3.76393862 8.60656437 -4.5057377 9.8104876 -9 12 C-9.66 12 -10.32 12 -11 12 C-11 11.34 -11 10.68 -11 10 C-10.01 10 -9.02 10 -8 10 C-7.67 8.35 -7.34 6.7 -7 5 C-9.31 5 -11.62 5 -14 5 C-14 4.67 -14 4.34 -14 4 Z " fill="#CCD0D4" transform="translate(458,499)"/>
<path d="M0 0 C1.65 0 3.3 0 5 0 C4.01 1.485 4.01 1.485 3 3 C2.69093577 5.67445297 2.48676016 8.26585913 2.3671875 10.94921875 C2.30484421 12.10814384 2.30484421 12.10814384 2.24124146 13.29048157 C2.11059345 15.75579666 1.9926442 18.2215335 1.875 20.6875 C1.78859659 22.36006945 1.70136692 24.03259643 1.61328125 25.70507812 C1.39926707 29.80295449 1.19663861 33.9012546 1 38 C0.67 38 0.34 38 0 38 C0 25.46 0 12.92 0 0 Z " fill="#182431" transform="translate(123,482)"/>
<path d="M0 0 C0.33 0.66 0.66 1.32 1 2 C9.58 2 18.16 2 27 2 C27 2.66 27 3.32 27 4 C17.76 4 8.52 4 -1 4 C-0.67 2.68 -0.34 1.36 0 0 Z " fill="#C9CFD6" transform="translate(289,504)"/>
<path d="M0 0 C0 3 0 3 -1 5 C-3.0625 5.625 -3.0625 5.625 -5 6 C-5.0825 6.763125 -5.165 7.52625 -5.25 8.3125 C-6.14615794 11.52373261 -7.21611025 12.29374499 -10 14 C-10.33 13.01 -10.66 12.02 -11 11 C-12.32 10.34 -13.64 9.68 -15 9 C-10.05 6.03 -5.1 3.06 0 0 Z " fill="#E3E4E8" transform="translate(445,265)"/>
<path d="M0 0 C0.69287109 0.00451172 1.38574219 0.00902344 2.09960938 0.01367188 C3.79561068 0.02536844 5.49156703 0.04330076 7.1875 0.0625 C7.1875 0.3925 7.1875 0.7225 7.1875 1.0625 C5.5375 1.3925 3.8875 1.7225 2.1875 2.0625 C2.1875 2.3925 2.1875 2.7225 2.1875 3.0625 C1.48882812 3.19527344 0.79015625 3.32804687 0.0703125 3.46484375 C-0.83976562 3.64144531 -1.74984375 3.81804687 -2.6875 4 C-4.04488281 4.26103516 -4.04488281 4.26103516 -5.4296875 4.52734375 C-7.81206317 4.96213701 -7.81206317 4.96213701 -9.8125 6.0625 C-10.8025 5.7325 -11.7925 5.4025 -12.8125 5.0625 C-12.8125 3.7425 -12.8125 2.4225 -12.8125 1.0625 C-8.52952469 0.00630997 -4.38264354 -0.05452092 0 0 Z M-14.8125 5.0625 C-12.8125 6.0625 -12.8125 6.0625 -12.8125 6.0625 Z " fill="#121F31" transform="translate(465.8125,479.9375)"/>
<path d="M0 0 C2.31 0.66 4.62 1.32 7 2 C0.37795276 7.02362205 0.37795276 7.02362205 -3 6.8125 C-6.00775285 5.99790027 -7.11821903 5.4044979 -9 3 C-7.35 2.34 -5.7 1.68 -4 1 C-4 1.66 -4 2.32 -4 3 C-3.01 2.67 -2.02 2.34 -1 2 C-0.67 1.34 -0.34 0.68 0 0 Z " fill="#DCDFE4" transform="translate(363,162)"/>
<path d="M0 0 C0.66 0.33 1.32 0.66 2 1 C2.625 3.0625 2.625 3.0625 3 5 C2.01 5 1.02 5 0 5 C0.25561323 7.3431213 0.59270772 9.67843403 1 12 C1.66 12.33 2.32 12.66 3 13 C3 13.66 3 14.32 3 15 C0.13275314 14.42655063 -0.8614515 14.1385485 -3 12 C-3.30078125 9.94140625 -3.30078125 9.94140625 -3.3125 7.5625 C-3.32925781 6.78003906 -3.34601563 5.99757813 -3.36328125 5.19140625 C-2.92353251 2.53872837 -2.04371546 1.677033 0 0 Z " fill="#DADDE1" transform="translate(456,521)"/>
<path d="M0 0 C1.98362069 2.91708924 1.9876191 4.12380904 1.625 7.75 C1.315625 9.35875 1.315625 9.35875 1 11 C0.01 10.67 -0.98 10.34 -2 10 C-2.33 11.32 -2.66 12.64 -3 14 C-8.61 13.67 -14.22 13.34 -20 13 C-20 12.67 -20 12.34 -20 12 C-14.39 12 -8.78 12 -3 12 C-3 11.01 -3 10.02 -3 9 C-3.66 8.67 -4.32 8.34 -5 8 C-3.35 7.34 -1.7 6.68 0 6 C0 4.02 0 2.04 0 0 Z " fill="#BDBFC2" transform="translate(336,515)"/>
<path d="M0 0 C4.34963507 1.40723488 8.06605756 3.45903499 11 7 C12.31765876 9.93031574 13.22637911 12.885158 14 16 C13.01 15.67 12.02 15.34 11 15 C10.67 13.02 10.34 11.04 10 9 C9.01 9.33 8.02 9.66 7 10 C6.34 8.02 5.68 6.04 5 4 C3.35 3.67 1.7 3.34 0 3 C0 2.01 0 1.02 0 0 Z " fill="#222C3B" transform="translate(481,482)"/>
<path d="M0 0 C1.38294718 0.01329757 2.76582404 0.03715018 4.1484375 0.0703125 C4.85484375 0.07933594 5.56125 0.08835937 6.2890625 0.09765625 C8.03399848 0.12123647 9.77876045 0.15710789 11.5234375 0.1953125 C10.7734375 5.9453125 10.7734375 5.9453125 8.5234375 8.1953125 C7.8634375 6.2153125 7.2034375 4.2353125 6.5234375 2.1953125 C2.5634375 2.1953125 -1.3965625 2.1953125 -5.4765625 2.1953125 C-3.4765625 0.1953125 -3.4765625 0.1953125 0 0 Z " fill="#1D2732" transform="translate(415.4765625,517.8046875)"/>
<path d="M0 0 C1.2375 0.2475 1.2375 0.2475 2.5 0.5 C9.17262257 1.4532318 15.37566856 0.94633306 22 0 C21.34 0.66 20.68 1.32 20 2 C20.33 2.66 20.66 3.32 21 4 C18.36 4.66 15.72 5.32 13 6 C12.67 5.01 12.34 4.02 12 3 C11.38511719 3.11859375 10.77023437 3.2371875 10.13671875 3.359375 C7.71358189 3.74584021 5.45506404 4.04788245 3 4 C0.9375 2.0625 0.9375 2.0625 0 0 Z " fill="#111F2F" transform="translate(375,532)"/>
<path d="M0 0 C1.5 1.25 1.5 1.25 3 3 C3 4.32 3 5.64 3 7 C-1.29 7 -5.58 7 -10 7 C-6.62247368 4.29797894 -3.68861839 2.10778194 0 0 Z " fill="#E1E2E5" transform="translate(379,304)"/>
<path d="M0 0 C0 0.66 0 1.32 0 2 C-4.64849515 4.3992233 -8.91086074 4.19957409 -14 4 C-9.98589083 -1.92558972 -6.48464081 -0.95675028 0 0 Z " fill="#DEDFE3" transform="translate(232,495)"/>
<path d="M0 0 C3.35306952 3.21894674 6.37798293 6.68194532 9.4140625 10.1953125 C10.56447716 11.50440505 11.76768973 12.76768973 13 14 C10.8125 14.375 10.8125 14.375 8 14 C5.4375 11.25 5.4375 11.25 4.20703125 9.5859375 C2.92586764 7.79882998 2.92586764 7.79882998 0.625 5.875 C0.08875 5.25625 -0.4475 4.6375 -1 4 C-0.75 1.75 -0.75 1.75 0 0 Z " fill="#D5D8DE" transform="translate(348,528)"/>
<path d="M0 0 C0.66 0.33 1.32 0.66 2 1 C1.67 1.66 1.34 2.32 1 3 C0.34 3 -0.32 3 -1 3 C-0.67 2.01 -0.34 1.02 0 0 Z M-3 1 C-0.43312633 4.8503105 -1.16711276 6.58569763 -2 11 C-2.33 11 -2.66 11 -3 11 C-3.33 16.28 -3.66 21.56 -4 27 C-4.33 27 -4.66 27 -5 27 C-5.0543251 23.97892098 -5.09382927 20.95883472 -5.125 17.9375 C-5.14175781 17.08994141 -5.15851563 16.24238281 -5.17578125 15.36914062 C-5.21596135 10.16581799 -4.69745815 5.92530179 -3 1 Z " fill="#4C5762" transform="translate(347,485)"/>
<path d="M0 0 C0.33 0 0.66 0 1 0 C1 2.31 1 4.62 1 7 C6.61 7 12.22 7 18 7 C18 7.33 18 7.66 18 8 C15.02111874 8.1938211 12.04209754 8.38035102 9.0625 8.5625 C8.21236328 8.61857422 7.36222656 8.67464844 6.48632812 8.73242188 C5.67744141 8.78076172 4.86855469 8.82910156 4.03515625 8.87890625 C3.2862915 8.9260376 2.53742676 8.97316895 1.76586914 9.02172852 C0 9 0 9 -1 8 C-1.125 4.5 -1.125 4.5 -1 1 C-0.67 0.67 -0.34 0.34 0 0 Z " fill="#C8CDD5" transform="translate(477,541)"/>
<path d="M0 0 C2.12493141 -0.02693575 4.24995912 -0.04636628 6.375 -0.0625 C7.55835938 -0.07410156 8.74171875 -0.08570313 9.9609375 -0.09765625 C13 0 13 0 15 1 C15 1.66 15 2.32 15 3 C9.72 3 4.44 3 -1 3 C-0.67 2.01 -0.34 1.02 0 0 Z " fill="#EDF1F3" transform="translate(411,515)"/>
<path d="M0 0 C0.556875 0.226875 1.11375 0.45375 1.6875 0.6875 C1.6875 1.3475 1.6875 2.0075 1.6875 2.6875 C-4.55559927 5.46221079 -9.51046625 6.06384203 -16.3125 5.6875 C-16.3125 5.3575 -16.3125 5.0275 -16.3125 4.6875 C-13.3425 4.6875 -10.3725 4.6875 -7.3125 4.6875 C-7.3125 4.0275 -7.3125 3.3675 -7.3125 2.6875 C-3.15982824 -0.42700382 -3.15982824 -0.42700382 0 0 Z " fill="#101C2E" transform="translate(423.3125,404.3125)"/>
<path d="M0 0 C1.5 1.375 1.5 1.375 3 3 C3 3.66 3 4.32 3 5 C3.66 5 4.32 5 5 5 C4.34 8.3 3.68 11.6 3 15 C2.67 15 2.34 15 2 15 C1.47076428 12.87707704 0.95184623 10.75157949 0.4375 8.625 C0.14746094 7.44164062 -0.14257812 6.25828125 -0.44140625 5.0390625 C-1 2 -1 2 0 0 Z " fill="#202D3E" transform="translate(201,258)"/>
<path d="M0 0 C0.33 0 0.66 0 1 0 C1 2.31 1 4.62 1 7 C6.61 7 12.22 7 18 7 C18 7.33 18 7.66 18 8 C16.19402344 8.09087891 16.19402344 8.09087891 14.3515625 8.18359375 C12.77602923 8.26799732 11.20050904 8.35264541 9.625 8.4375 C8.8309375 8.47681641 8.036875 8.51613281 7.21875 8.55664062 C2.97398779 8.68893404 2.97398779 8.68893404 -1 10 C-1.99 9.67 -2.98 9.34 -4 9 C-3.67 8.01 -3.34 7.02 -3 6 C-2.34 6 -1.68 6 -1 6 C-0.67 4.02 -0.34 2.04 0 0 Z " fill="#C4C8CD" transform="translate(166,541)"/>
<path d="M0 0 C0.66 0 1.32 0 2 0 C3.32 2.31 4.64 4.62 6 7 C4.35 7.33 2.7 7.66 1 8 C1.33 6.68 1.66 5.36 2 4 C1.21625 4.515625 0.4325 5.03125 -0.375 5.5625 C-1.24125 6.036875 -2.1075 6.51125 -3 7 C-3.66 6.67 -4.32 6.34 -5 6 C-3.38405168 3.95880212 -1.7143618 1.95927063 0 0 Z " fill="#D6D9E0" transform="translate(70,511)"/>
<path d="M0 0 C1.95825873 -0.02694851 3.91662226 -0.04637218 5.875 -0.0625 C6.96554687 -0.07410156 8.05609375 -0.08570313 9.1796875 -0.09765625 C12 0 12 0 14 1 C13.67 2.32 13.34 3.64 13 5 C8.71 3.68 4.42 2.36 0 1 C0 0.67 0 0.34 0 0 Z " fill="#232F3E" transform="translate(353,43)"/>
<path d="M0 0 C3.9036874 3.46994436 6.36588975 7.55224006 9 12 C7.02 12 5.04 12 3 12 C3 9.69 3 7.38 3 5 C2.01 5 1.02 5 0 5 C0 3.35 0 1.7 0 0 Z " fill="#232F3C" transform="translate(109,535)"/>
<path d="M0 0 C0.66 0 1.32 0 2 0 C2.66 0.66 3.32 1.32 4 2 C4.66 2 5.32 2 6 2 C6 4 6 4 3.625 6.5625 C1 9 1 9 -1 10 C-1.02689216 8.52093108 -1.04634621 7.04172517 -1.0625 5.5625 C-1.07410156 4.73878906 -1.08570313 3.91507812 -1.09765625 3.06640625 C-1 1 -1 1 0 0 Z " fill="#D8DCE4" transform="translate(525,480)"/>
<path d="M0 0 C1.98 0.66 3.96 1.32 6 2 C5.46073515 3.63285782 4.89260746 5.25620212 4.3125 6.875 C3.99925781 7.77992188 3.68601562 8.68484375 3.36328125 9.6171875 C1.66303207 12.58896973 0.22446551 13.06955722 -3 14 C-3 13.34 -3 12.68 -3 12 C-2.01 11.34 -1.02 10.68 0 10 C1.04957568 6.18336115 1.25569054 3.76707162 0 0 Z " fill="#132131" transform="translate(436,384)"/>
<path d="M0 0 C0.99 0.99 1.98 1.98 3 3 C0.32203028 6.46560787 -2.83662716 7.08264666 -7 8 C-10.4375 8.125 -10.4375 8.125 -13 8 C-13 7.67 -13 7.34 -13 7 C-11.906875 6.71125 -10.81375 6.4225 -9.6875 6.125 C-5.95986155 5.18106796 -5.95986155 5.18106796 -3 3 C-2.01 3 -1.02 3 0 3 C0 2.01 0 1.02 0 0 Z " fill="#212C3B" transform="translate(371,304)"/>
<path d="M0 0 C2.94956528 1.36944102 5.52468811 2.87830409 8 5 C8 5.66 8 6.32 8 7 C7.05125 6.814375 6.1025 6.62875 5.125 6.4375 C2.10131207 5.71313368 2.10131207 5.71313368 0 7 C-0.99 6.34 -1.98 5.68 -3 5 C-2.01 3.35 -1.02 1.7 0 0 Z " fill="#DFE1E3" transform="translate(315,167)"/>
<path d="M0 0 C1.9453125 0.2421875 1.9453125 0.2421875 4.125 0.875 C4.84945313 1.07867187 5.57390625 1.28234375 6.3203125 1.4921875 C6.87460937 1.65976562 7.42890625 1.82734375 8 2 C8.33 3.32 8.66 4.64 9 6 C8.01 6.495 8.01 6.495 7 7 C4.8359375 6.00390625 4.8359375 6.00390625 2.375 4.5625 C1.55773437 4.08941406 0.74046875 3.61632813 -0.1015625 3.12890625 C-0.72804688 2.75636719 -1.35453125 2.38382813 -2 2 C-1.34 1.34 -0.68 0.68 0 0 Z " fill="#DBDDE2" transform="translate(383,51)"/>
<path d="M0 0 C3.3 0.33 6.6 0.66 10 1 C10 4.96 10 8.92 10 13 C9.67 13 9.34 13 9 13 C8.34 10.03 7.68 7.06 7 4 C5.35 3.67 3.7 3.34 2 3 C2 2.34 2 1.68 2 1 C1.34 0.67 0.68 0.34 0 0 Z " fill="#202D3F" transform="translate(537,480)"/>
<path d="M0 0 C2 2 2 2 2 5 C-0.50823147 7.77939163 -2.88157129 9.92104752 -6 12 C-6.33 11.01 -6.66 10.02 -7 9 C-5.56640625 6.73828125 -5.56640625 6.73828125 -3.5625 4.3125 C-2.90378906 3.50425781 -2.24507813 2.69601562 -1.56640625 1.86328125 C-1.04949219 1.24839844 -0.53257813 0.63351562 0 0 Z " fill="#D6DBE2" transform="translate(107,467)"/>
<path d="M0 0 C0.66 0.33 1.32 0.66 2 1 C2 1.99 2 2.98 2 4 C0.2421875 4.9765625 -1.515625 5.953125 -3.2734375 6.9296875 C-5.1612614 8.00897274 -5.1612614 8.00897274 -7 10 C-7.33 8.35 -7.66 6.7 -8 5 C-6.71475739 4.13619741 -5.42157581 3.28419631 -4.125 2.4375 C-3.04605469 1.72400391 -3.04605469 1.72400391 -1.9453125 0.99609375 C-1.30335938 0.66738281 -0.66140625 0.33867187 0 0 Z " fill="#243243" transform="translate(400,267)"/>
<path d="M0 0 C3.3 1.65 6.6 3.3 10 5 C9.01 5.66 8.02 6.32 7 7 C5.68 6.34 4.36 5.68 3 5 C2.67 5.66 2.34 6.32 2 7 C-0.13324818 4.86675182 -0.53238345 3.8992226 -1 1 C-0.67 0.67 -0.34 0.34 0 0 Z " fill="#DEE0E3" transform="translate(300,280)"/>
<path d="M0 0 C0.66 0.33 1.32 0.66 2 1 C1.74609375 2.85546875 1.74609375 2.85546875 1 5 C-0.77734375 6.30078125 -0.77734375 6.30078125 -2.9375 7.3125 C-3.64777344 7.65925781 -4.35804688 8.00601563 -5.08984375 8.36328125 C-6.03537109 8.67845703 -6.03537109 8.67845703 -7 9 C-7.66 8.67 -8.32 8.34 -9 8 C-7.83917375 4.51752126 -7.09067524 4.11180756 -4.0625 2.25 C-3.35222656 1.80140625 -2.64195312 1.3528125 -1.91015625 0.890625 C-1.27980469 0.59671875 -0.64945312 0.3028125 0 0 Z " fill="#D7DBE1" transform="translate(384,179)"/>
<path d="M0 0 C1.74627478 2.61941217 2.38722388 4.03824877 3 7 C2.01 7 1.02 7 0 7 C-0.33 7.66 -0.66 8.32 -1 9 C-2.32 8.34 -3.64 7.68 -5 7 C-3.88820837 3.66462511 -2.52588702 2.36292656 0 0 Z " fill="#DFE2E5" transform="translate(343,516)"/>
<path d="M0 0 C-2.07309734 1.11058786 -3.88618411 1.97398494 -6.1875 2.5 C-6.785625 2.665 -7.38375 2.83 -8 3 C-8.33 3.66 -8.66 4.32 -9 5 C-10.32 5 -11.64 5 -13 5 C-10.04964557 -1.80851023 -6.4752192 -1.06151134 0 0 Z " fill="#2B3644" transform="translate(108,70)"/>
<path d="M0 0 C1.32 0.33 2.64 0.66 4 1 C2.47291037 4.43595166 0.40072955 7.11912454 -2 10 C-3.06351675 6.61608307 -3.21442982 5.4195366 -1.5625 2.1875 C-1.046875 1.465625 -0.53125 0.74375 0 0 Z " fill="#212E3E" transform="translate(408,518)"/>
<path d="M0 0 C0.70769531 0.38285156 1.41539062 0.76570313 2.14453125 1.16015625 C2.85996094 1.54042969 3.57539063 1.92070312 4.3125 2.3125 C4.85519531 2.61285156 5.39789063 2.91320312 5.95703125 3.22265625 C2.95703125 5.22265625 2.95703125 5.22265625 0.4765625 4.98046875 C-0.41675781 4.77164062 -1.31007813 4.5628125 -2.23046875 4.34765625 C-3.13152344 4.14398438 -4.03257812 3.9403125 -4.9609375 3.73046875 C-5.64800781 3.56289063 -6.33507812 3.3953125 -7.04296875 3.22265625 C-4.93383325 0.058953 -3.80642744 -1.44833472 0 0 Z " fill="#DBDEE4" transform="translate(344.04296875,304.77734375)"/>
<path d="M0 0 C0.33 1.32 0.66 2.64 1 4 C-1.97180943 5.89865603 -4.51460083 7.35455571 -8 8 C-8.33 7.01 -8.66 6.02 -9 5 C-6.03 3.35 -3.06 1.7 0 0 Z " fill="#223040" transform="translate(388,153)"/>
<path d="M0 0 C1.02577148 0.00676758 1.02577148 0.00676758 2.07226562 0.01367188 C3.73571604 0.0253044 5.3991205 0.04323306 7.0625 0.0625 C7.0625 0.7225 7.0625 1.3825 7.0625 2.0625 C2.10603238 2.76439629 -2.02054322 3.19718233 -6.9375 2.0625 C-9.61071863 1.97205275 -12.26161363 2.01714599 -14.9375 2.0625 C-14.9375 1.7325 -14.9375 1.4025 -14.9375 1.0625 C-9.89895894 0.23038724 -5.1249338 -0.0453534 0 0 Z " fill="#455160" transform="translate(470.9375,506.9375)"/>
<path d="M0 0 C-0.9075 0.598125 -1.815 1.19625 -2.75 1.8125 C-5.22901481 3.48106766 -7.63317911 5.17936855 -10 7 C-12 6 -12 6 -13 4 C-11.59248779 3.13083113 -10.1735479 2.28014851 -8.75 1.4375 C-7.96109375 0.96183594 -7.1721875 0.48617187 -6.359375 -0.00390625 C-3.69155375 -1.13022151 -2.65498232 -1.0169313 0 0 Z " fill="#D5D8DC" transform="translate(426,158)"/>
<path d="M0 0 C0.99 0.66 1.98 1.32 3 2 C-0.73470101 5.04308971 -4.46668034 6.48889345 -9 8 C-9 7.01 -9 6.02 -9 5 C-6.03 3.35 -3.06 1.7 0 0 Z " fill="#1D2B39" transform="translate(352,44)"/>
<path d="M0 0 C1.15224028 0.92961422 2.29659176 1.8690125 3.4375 2.8125 C4.07558594 3.33457031 4.71367187 3.85664062 5.37109375 4.39453125 C7 6 7 6 8 9 C6.02 8.34 4.04 7.68 2 7 C2 6.34 2 5.68 2 5 C1.01 4.67 0.02 4.34 -1 4 C-0.67 2.68 -0.34 1.36 0 0 Z " fill="#D8D9DE" transform="translate(127,540)"/>
<path d="M0 0 C0.33 0 0.66 0 1 0 C1.05383848 2.45862401 1.09359038 4.9160755 1.125 7.375 C1.14175781 8.07367188 1.15851563 8.77234375 1.17578125 9.4921875 C1.19344267 11.32897486 1.10303261 13.16601963 1 15 C0.34 15.66 -0.32 16.32 -1 17 C-2.3357457 13.22628488 -1.72408671 10.14168653 -1.0625 6.25 C-0.86785156 5.07953125 -0.67320312 3.9090625 -0.47265625 2.703125 C-0.31667969 1.81109375 -0.16070312 0.9190625 0 0 Z " fill="#DFDFE6" transform="translate(309,372)"/>
<path d="M0 0 C0.99 0.99 1.98 1.98 3 3 C2.360625 3.78375 1.72125 4.5675 1.0625 5.375 C-0.98142313 7.79539281 -0.98142313 7.79539281 -2 10 C-3.32 9.34 -4.64 8.68 -6 8 C-4.73046875 6.50260417 -3.4609375 5.00520833 -2.19140625 3.5078125 C-0.9121848 1.99405921 -0.9121848 1.99405921 0 0 Z " fill="#D4D7DE" transform="translate(331,533)"/>
<path d="M0 0 C1.93719378 -0.05406122 3.87481921 -0.09282025 5.8125 -0.125 C6.89144531 -0.14820313 7.97039062 -0.17140625 9.08203125 -0.1953125 C12 0 12 0 15 2 C12.69 2.66 10.38 3.32 8 4 C7.67 3.01 7.34 2.02 7 1 C4.69 1 2.38 1 0 1 C0 0.67 0 0.34 0 0 Z " fill="#131F31" transform="translate(228,480)"/>
<path d="M0 0 C-0.33 1.65 -0.66 3.3 -1 5 C-3.97 4.67 -6.94 4.34 -10 4 C-7.25346796 1.25346796 -3.91404908 0 0 0 Z " fill="#212D3C" transform="translate(376,457)"/>
<path d="M0 0 C2.31 0 4.62 0 7 0 C7 0.66 7 1.32 7 2 C3.07142246 3.85131483 0.01224888 4.22004943 -4.3125 4.125 C-5.38113281 4.10695313 -6.44976562 4.08890625 -7.55078125 4.0703125 C-8.35902344 4.04710937 -9.16726563 4.02390625 -10 4 C-10 3.67 -10 3.34 -10 3 C-7.03 3 -4.06 3 -1 3 C-0.67 2.01 -0.34 1.02 0 0 Z " fill="#0E1626" transform="translate(281,406)"/>
<path d="M0 0 C4.50802601 1.25805377 7.4912812 2.90407165 11 6 C10.01 6 9.02 6 8 6 C6.7625 6.12375 6.7625 6.12375 5.5 6.25 C3 6 3 6 1.1875 4.125 C0 2 0 2 0 0 Z " fill="#192535" transform="translate(417,74)"/>
<path d="M0 0 C0.33 0 0.66 0 1 0 C1.33 4.29 1.66 8.58 2 13 C1.01 13.33 0.02 13.66 -1 14 C-1.02685938 11.85423363 -1.04633088 9.70837355 -1.0625 7.5625 C-1.07410156 6.36753906 -1.08570313 5.17257812 -1.09765625 3.94140625 C-1 1 -1 1 0 0 Z " fill="#EFF3F9" transform="translate(596,482)"/>
<path d="M0 0 C0.99 0.33 1.98 0.66 3 1 C1.79618552 3.49361571 0.54571278 5.68143083 -1 8 C-2.32 7.67 -3.64 7.34 -5 7 C-3.35 4.69 -1.7 2.38 0 0 Z " fill="#1D2A3A" transform="translate(72,485)"/>
<path d="M0 0 C-0.33 1.65 -0.66 3.3 -1 5 C-3.64 5.33 -6.28 5.66 -9 6 C-3.15384615 0 -3.15384615 0 0 0 Z " fill="#253142" transform="translate(536,481)"/>
<path d="M0 0 C2.45840605 -0.02691685 4.91651882 -0.04679802 7.375 -0.0625 C8.07367188 -0.07087891 8.77234375 -0.07925781 9.4921875 -0.08789062 C14.7734375 -0.11328125 14.7734375 -0.11328125 17 1 C17 1.99 17 2.98 17 4 C16.01 4 15.02 4 14 4 C14 3.34 14 2.68 14 2 C13.01 2.33 12.02 2.66 11 3 C11 2.34 11 1.68 11 1 C7.37 1 3.74 1 0 1 C0 0.67 0 0.34 0 0 Z " fill="#0A1826" transform="translate(296,480)"/>
<path d="M0 0 C0.66 0.33 1.32 0.66 2 1 C0.43537394 2.72108867 -0.83018459 3.91783125 -2.9375 4.9375 C-5.45273471 6.23322697 -7.08036181 7.9432448 -9 10 C-9.33 8.68 -9.66 7.36 -10 6 C-8.3811004 4.96951963 -6.75467511 3.95085322 -5.125 2.9375 C-4.22007812 2.36902344 -3.31515625 1.80054688 -2.3828125 1.21484375 C-1.20332031 0.61349609 -1.20332031 0.61349609 0 0 Z " fill="#263241" transform="translate(417,257)"/>
<path d="M0 0 C-0.625 2.375 -0.625 2.375 -2 5 C-5.125 6.3125 -5.125 6.3125 -8 7 C-8.66 6.34 -9.32 5.68 -10 5 C-8.71186658 4.16121545 -7.41936744 3.32913217 -6.125 2.5 C-5.40570313 2.0359375 -4.68640625 1.571875 -3.9453125 1.09375 C-2 0 -2 0 0 0 Z " fill="#2A3747" transform="translate(292,80)"/>
<path d="M0 0 C3 1.6875 3 1.6875 6 4 C6.375 6.75 6.375 6.75 6 9 C4.125 8.875 4.125 8.875 2 8 C0.83328724 5.25822503 0 2.99432393 0 0 Z " fill="#E0E2E4" transform="translate(214,542)"/>
<path d="M0 0 C0.33 0 0.66 0 1 0 C1.12375 1.0725 1.2475 2.145 1.375 3.25 C1.76941725 6.83529804 1.76941725 6.83529804 3.125 9.125 C4.32398098 11.69424496 3.74097443 13.33249205 3 16 C0.49399686 13.49399686 0.02945209 11.81405575 -0.09765625 8.30078125 C-0.08605469 7.31464844 -0.07445312 6.32851563 -0.0625 5.3125 C-0.05347656 4.31863281 -0.04445313 3.32476563 -0.03515625 2.30078125 C-0.02355469 1.54152344 -0.01195312 0.78226563 0 0 Z " fill="#39434E" transform="translate(435,523)"/>
<path d="M0 0 C1.25127906 3.54667178 0.72285053 5.72253438 -0.4375 9.25 C-0.72496094 10.14203125 -1.01242187 11.0340625 -1.30859375 11.953125 C-1.53675781 12.62859375 -1.76492188 13.3040625 -2 14 C-4.29013653 10.5647952 -4.17842973 9.014669 -4 5 C-3.34 5 -2.68 5 -2 5 C-1.34 3.35 -0.68 1.7 0 0 Z " fill="#111D2E" transform="translate(363,484)"/>
<path d="M0 0 C1.3303125 0.25716797 1.3303125 0.25716797 2.6875 0.51953125 C5 1.1875 5 1.1875 7 3.1875 C0.07 2.6925 0.07 2.6925 -7 2.1875 C-7 1.5275 -7 0.8675 -7 0.1875 C-4.31943083 -1.15278459 -2.91141236 -0.58820686 0 0 Z " fill="#E6E8EB" transform="translate(348,308.8125)"/>
<path d="M0 0 C-2.47775095 1.23887548 -4.23653707 1.16741669 -7 1.1875 C-8.3303125 1.20876953 -8.3303125 1.20876953 -9.6875 1.23046875 C-12 1 -12 1 -14 -1 C-12.41870971 -1.22331199 -10.83478911 -1.42804644 -9.25 -1.625 C-8.36828125 -1.74101563 -7.4865625 -1.85703125 -6.578125 -1.9765625 C-3.77140122 -2.00207817 -2.36615134 -1.44843844 0 0 Z " fill="#2F3844" transform="translate(393,549)"/>
<path d="M0 0 C0.66 0 1.32 0 2 0 C1.52797514 4.24822374 -0.96655518 6.19989709 -4 9 C-4.33 7.68 -4.66 6.36 -5 5 C-4.01 4.67 -3.02 4.34 -2 4 C-2 3.34 -2 2.68 -2 2 C-1.34 2 -0.68 2 0 2 C0 1.34 0 0.68 0 0 Z " fill="#D7DBE0" transform="translate(69,485)"/>
<path d="M0 0 C0.66 0 1.32 0 2 0 C4 2.5 4 2.5 6 5 C7.93920267 6.75859065 9.94931631 8.36877433 12 10 C11.01 10.33 10.02 10.66 9 11 C5.29864501 8.53243001 2.57012575 5.61721402 0 2 C0 1.34 0 0.68 0 0 Z " fill="#192334" transform="translate(384,394)"/>
<path d="M0 0 C0.66 0.33 1.32 0.66 2 1 C1.125 6.75 1.125 6.75 0 9 C0.66 9 1.32 9 2 9 C1.67 9.66 1.34 10.32 1 11 C0.34 11 -0.32 11 -1 11 C-1.33 8.36 -1.66 5.72 -2 3 C-1.34 3 -0.68 3 0 3 C0 2.01 0 1.02 0 0 Z " fill="#DEE1E4" transform="translate(205,190)"/>
<path d="M0 0 C0.33 0.66 0.66 1.32 1 2 C0.34 2 -0.32 2 -1 2 C-1.33 3.98 -1.66 5.96 -2 8 C-4.475 7.01 -4.475 7.01 -7 6 C-6 3 -6 3 -2.9375 1.3125 C-1.968125 0.879375 -0.99875 0.44625 0 0 Z " fill="#D5D9E2" transform="translate(277,112)"/>
<path d="M0 0 C0 0.66 0 1.32 0 2 C2.31 2.33 4.62 2.66 7 3 C6.67 3.66 6.34 4.32 6 5 C1.44262737 4.56179109 -1.57653445 4.14958831 -5 1 C-3 0 -3 0 0 0 Z " fill="#182536" transform="translate(147,102)"/>
<path d="M0 0 C3.3 0 6.6 0 10 0 C8.02 0.99 8.02 0.99 6 2 C4.29078411 3.5412312 4.29078411 3.5412312 3 5 C2.01 4.67 1.02 4.34 0 4 C0 2.68 0 1.36 0 0 Z " fill="#192333" transform="translate(509,482)"/>
<path d="M0 0 C0.66 0 1.32 0 2 0 C2 0.66 2 1.32 2 2 C4.64 2.33 7.28 2.66 10 3 C10 3.33 10 3.66 10 4 C5.71 4 1.42 4 -3 4 C-2.01 2.68 -1.02 1.36 0 0 Z " fill="#D8DBDD" transform="translate(302,476)"/>
<path d="M0 0 C0 0.66 0 1.32 0 2 C-0.66 2 -1.32 2 -2 2 C-2 2.66 -2 3.32 -2 4 C-2.99 4 -3.98 4 -5 4 C-5.33 4.99 -5.66 5.98 -6 7 C-7.32 6.67 -8.64 6.34 -10 6 C-7.35570758 3.077361 -4.105808 0 0 0 Z " fill="#D5D9DF" transform="translate(462,256)"/>
<path d="M0 0 C0.99 0 1.98 0 3 0 C3.66 3.3 4.32 6.6 5 10 C4.01 10.495 4.01 10.495 3 11 C2.49632243 9.54293274 1.99717444 8.08429904 1.5 6.625 C1.2215625 5.81289062 0.943125 5.00078125 0.65625 4.1640625 C0 2 0 2 0 0 Z " fill="#2B3645" transform="translate(186,145)"/>
<path d="M0 0 C4.75481646 0.57634139 7.97048212 2.55068521 12 5 C10.02 5.99 10.02 5.99 8 7 C5.96166576 5.7260411 3.96147874 4.38938077 2 3 C2 2.34 2 1.68 2 1 C1.34 0.67 0.68 0.34 0 0 Z " fill="#232F3F" transform="translate(315,144)"/>
<path d="M0 0 C0.33 0.66 0.66 1.32 1 2 C0.34 2 -0.32 2 -1 2 C-1.33 2.99 -1.66 3.98 -2 5 C-3.65 5.33 -5.3 5.66 -7 6 C-7 6.66 -7 7.32 -7 8 C-8.32 7.34 -9.64 6.68 -11 6 C-7.37 4.02 -3.74 2.04 0 0 Z " fill="#D7DAE0" transform="translate(314,90)"/>
<path d="M0 0 C0.99 0.33 1.98 0.66 3 1 C3 1.99 3 2.98 3 4 C-0.96 5.98 -0.96 5.98 -5 8 C-5 7.01 -5 6.02 -5 5 C-4.01 5 -3.02 5 -2 5 C-1.34 3.35 -0.68 1.7 0 0 Z " fill="#DEDFE7" transform="translate(335,49)"/>
<path d="M0 0 C3.3 0 6.6 0 10 0 C9.67 0.99 9.34 1.98 9 3 C6.03 3 3.06 3 0 3 C0 2.01 0 1.02 0 0 Z " fill="#25313F" transform="translate(585,534)"/>
<path d="M0 0 C2 2 2 2 2 6 C0.68 6.33 -0.64 6.66 -2 7 C-2.66 5.02 -3.32 3.04 -4 1 C-2.68 1.33 -1.36 1.66 0 2 C0 1.34 0 0.68 0 0 Z " fill="#DEE0E3" transform="translate(219,523)"/>
<path d="M0 0 C-1.22053859 3.66161578 -2.36782304 4.16270474 -5.5625 6.1875 C-6.38878906 6.71730469 -7.21507812 7.24710937 -8.06640625 7.79296875 C-8.70449219 8.19128906 -9.34257812 8.58960938 -10 9 C-9.6121322 6.51339545 -9.29037521 5.27654781 -7.44140625 3.515625 C-6.82136719 3.09796875 -6.20132812 2.6803125 -5.5625 2.25 C-4.94503906 1.82203125 -4.32757813 1.3940625 -3.69140625 0.953125 C-2 0 -2 0 0 0 Z " fill="#D9DEE5" transform="translate(399,347)"/>
<path d="M0 0 C1.89213369 2.38573379 3.02391783 4.07175348 4 7 C3.01 7.33 2.02 7.66 1 8 C-1.1875 6.5625 -1.1875 6.5625 -3 5 C-1.125 1.125 -1.125 1.125 0 0 Z " fill="#DEDFE1" transform="translate(426,244)"/>
<path d="M0 0 C0 0.99 0 1.98 0 3 C-1.75 4.38671875 -1.75 4.38671875 -4 5.6875 C-4.7425 6.12449219 -5.485 6.56148438 -6.25 7.01171875 C-6.8275 7.33785156 -7.405 7.66398437 -8 8 C-8.66 7.34 -9.32 6.68 -10 6 C-6.7 4.02 -3.4 2.04 0 0 Z " fill="#D4D7DE" transform="translate(292,103)"/>
<path d="M0 0 C0.66 0.33 1.32 0.66 2 1 C1.67 2.32 1.34 3.64 1 5 C0.34 5 -0.32 5 -1 5 C-1.33 5.99 -1.66 6.98 -2 8 C-3.5 6.625 -3.5 6.625 -5 5 C-5 4.34 -5 3.68 -5 3 C-2.625 1.3125 -2.625 1.3125 0 0 Z " fill="#DCDDE0" transform="translate(411,542)"/>
<path d="M0 0 C2.97 0.495 2.97 0.495 6 1 C6.33 2.32 6.66 3.64 7 5 C5.35 5.33 3.7 5.66 2 6 C0 3 0 3 0 0 Z " fill="#0F2033" transform="translate(566,536)"/>
<path d="M0 0 C2.40072955 2.88087546 4.47291037 5.56404834 6 9 C5.01 9.495 5.01 9.495 4 10 C4 9.01 4 8.02 4 7 C3.360625 6.731875 2.72125 6.46375 2.0625 6.1875 C0 5 0 5 -1 2 C-0.67 1.34 -0.34 0.68 0 0 Z " fill="#D0D4DA" transform="translate(87,534)"/>
<path d="M0 0 C0.33 0.99 0.66 1.98 1 3 C1.66 3 2.32 3 3 3 C2.67 4.98 2.34 6.96 2 9 C1.54625 8.34 1.0925 7.68 0.625 7 C0.08875 6.34 -0.4475 5.68 -1 5 C-1.66 5 -2.32 5 -3 5 C-2.625 3.0625 -2.625 3.0625 -2 1 C-1.34 0.67 -0.68 0.34 0 0 Z " fill="#D8DBDC" transform="translate(437,488)"/>
<path d="M0 0 C-0.33 0.66 -0.66 1.32 -1 2 C-7.75 1.25 -7.75 1.25 -10 -1 C-6.18510326 -2.46726798 -3.70988378 -1.43336419 0 0 Z " fill="#142130" transform="translate(407,407)"/>
<path d="M0 0 C3.96 1.98 3.96 1.98 8 4 C5 6 5 6 2.3125 5.625 C1.549375 5.41875 0.78625 5.2125 0 5 C-0.33 4.01 -0.66 3.02 -1 2 C-0.67 1.34 -0.34 0.68 0 0 Z " fill="#D9DEE3" transform="translate(318,290)"/>
<path d="M0 0 C3.45925163 1.2491742 6.14693203 2.67527795 9 5 C6.8125 5.8125 6.8125 5.8125 4 6 C1.1875 3.5625 1.1875 3.5625 -1 1 C-0.67 0.67 -0.34 0.34 0 0 Z " fill="#142232" transform="translate(289,250)"/>
<path d="M0 0 C-0.33 0.99 -0.66 1.98 -1 3 C-5.455 3.495 -5.455 3.495 -10 4 C-6.58908673 0.88145073 -4.68377325 -0.53528837 0 0 Z " fill="#D0D5DB" transform="translate(482,246)"/>
<path d="M0 0 C-2.68841859 2.25245881 -4.64641875 3.88213958 -8 5 C-8.66 4.34 -9.32 3.68 -10 3 C-6.84439813 -0.15560187 -4.30999015 -1.43666338 0 0 Z " fill="#DCDEE2" transform="translate(407,142)"/>
<path d="M0 0 C0.66 0.33 1.32 0.66 2 1 C2.625 3.0625 2.625 3.0625 3 5 C1.68 5 0.36 5 -1 5 C-1.66 5.66 -2.32 6.32 -3 7 C-3.33 5.35 -3.66 3.7 -4 2 C-2.125 0.9375 -2.125 0.9375 0 0 Z " fill="#132436" transform="translate(432,128)"/>
<path d="M0 0 C0 0.66 0 1.32 0 2 C-2.47346304 4.47346304 -3.70761168 4.98313144 -7.25 5.1875 C-8.1575 5.125625 -9.065 5.06375 -10 5 C-3.87096774 0 -3.87096774 0 0 0 Z " fill="#CDD3D8" transform="translate(361,64)"/>
<path d="M0 0 C0.33 0.66 0.66 1.32 1 2 C2.65 2 4.3 2 6 2 C6 3.65 6 5.3 6 7 C3.5625 6.3125 3.5625 6.3125 1 5 C0.1875 2.375 0.1875 2.375 0 0 Z " fill="#253040" transform="translate(217,541)"/>
<path d="M0 0 C2.00720923 0.28674418 4.0085944 0.61866701 6 1 C5.34 2.65 4.68 4.3 4 6 C3.01 6 2.02 6 1 6 C0.34 4.35 -0.32 2.7 -1 1 C-0.67 0.67 -0.34 0.34 0 0 Z " fill="#DEDFDD" transform="translate(89,490)"/>
<path d="M0 0 C1.32 0.33 2.64 0.66 4 1 C4 1.66 4 2.32 4 3 C3.01 3.495 3.01 3.495 2 4 C0.86649466 6.01669827 0.86649466 6.01669827 0 8 C-0.66 7.67 -1.32 7.34 -2 7 C-2 4.3534665 -1.01860366 2.4191837 0 0 Z " fill="#132232" transform="translate(88,465)"/>
<path d="M0 0 C0.66 0 1.32 0 2 0 C3.35439668 2.70879335 3.06501451 5.00933268 3 8 C2.01 8.495 2.01 8.495 1 9 C-0.4783226 6.04335481 -0.06032783 3.25770263 0 0 Z " fill="#232E3F" transform="translate(246,382)"/>
<path d="M0 0 C0 3 0 3 -1 5 C-3.64860427 5.59355614 -6.29197322 5.74209269 -9 6 C-6.11912454 3.59927045 -3.43595166 1.52708963 0 0 Z " fill="#D4D8DD" transform="translate(445,265)"/>
<path d="M0 0 C1.32 1.65 2.64 3.3 4 5 C3.01 5.66 2.02 6.32 1 7 C-0.32 6.34 -1.64 5.68 -3 5 C-2.01 3.35 -1.02 1.7 0 0 Z " fill="#DEE2E4" transform="translate(482,240)"/>
<path d="M0 0 C0.33 0.99 0.66 1.98 1 3 C0.01 3.33 -0.98 3.66 -2 4 C-2 4.99 -2 5.98 -2 7 C-2.99 6.67 -3.98 6.34 -5 6 C-4.75 4.125 -4.75 4.125 -4 2 C-1.9375 0.75 -1.9375 0.75 0 0 Z " fill="#DBE1E5" transform="translate(461,135)"/>
<path d="M0 0 C7.50769231 -0.36923077 7.50769231 -0.36923077 10 1.5 C10.495 2.2425 10.495 2.2425 11 3 C9 4 9 4 6.8359375 3.44140625 C6.02382812 3.15136719 5.21171875 2.86132812 4.375 2.5625 C3.55773437 2.27503906 2.74046875 1.98757812 1.8984375 1.69140625 C1.27195313 1.46324219 0.64546875 1.23507813 0 1 C0 0.67 0 0.34 0 0 Z " fill="#D2D5DD" transform="translate(152,85)"/>
<path d="M0 0 C2.50037734 2.17424117 3.43628586 3.73045798 4 7 C1.03 6.505 1.03 6.505 -2 6 C-1.34 4.02 -0.68 2.04 0 0 Z " fill="#D3D8DD" transform="translate(564,536)"/>
<path d="M0 0 C4.75 0.75 4.75 0.75 7 3 C5.02 3.66 3.04 4.32 1 5 C0.67 3.35 0.34 1.7 0 0 Z " fill="#DADCE1" transform="translate(273,265)"/>
<path d="M0 0 C-2.12780579 2.34058637 -4.11562221 3.70700306 -7 5 C-6.67 3.35 -6.34 1.7 -6 0 C-3 -1 -3 -1 0 0 Z " fill="#222D3F" transform="translate(453,260)"/>
<path d="M0 0 C0.99 0.33 1.98 0.66 3 1 C3 1.66 3 2.32 3 3 C3.9590625 3.1546875 3.9590625 3.1546875 4.9375 3.3125 C5.618125 3.539375 6.29875 3.76625 7 4 C7.33 4.99 7.66 5.98 8 7 C4.00499382 5.6302836 1.19990508 3.74277578 -2 1 C-1.34 0.67 -0.68 0.34 0 0 Z " fill="#283241" transform="translate(264,256)"/>
<path d="M0 0 C2.12508244 3.18762365 2.5020163 5.26512223 3 9 C2.01 9.495 2.01 9.495 1 10 C-1.42857143 3.71428571 -1.42857143 3.71428571 0 0 Z " fill="#2C3745" transform="translate(204,201)"/>
<path d="M0 0 C0.66 0.33 1.32 0.66 2 1 C1.67 1.99 1.34 2.98 1 4 C0.34 4 -0.32 4 -1 4 C-1 4.99 -1 5.98 -1 7 C-2.65 7 -4.3 7 -6 7 C-4.15794162 4.45620509 -2.27521866 2.16687491 0 0 Z " fill="#263243" transform="translate(312,67)"/>
<path d="M0 0 C-3.18762365 2.12508244 -5.26512223 2.5020163 -9 3 C-9 2.01 -9 1.02 -9 0 C-5.93109813 -1.53445094 -3.29905734 -0.54984289 0 0 Z " fill="#D1D6DB" transform="translate(580,548)"/>
<path d="M0 0 C4.55384615 -0.36923077 4.55384615 -0.36923077 6.8125 1.5 C7.204375 1.995 7.59625 2.49 8 3 C5.39417629 3.93065133 4.35801776 4.14917407 1.75 3.0625 C1.1725 2.711875 0.595 2.36125 0 2 C0 1.34 0 0.68 0 0 Z " fill="#1E2A39" transform="translate(571,544)"/>
<path d="M0 0 C1.65 1.65 3.3 3.3 5 5 C3.35 5.33 1.7 5.66 0 6 C-1 3 -1 3 0 0 Z " fill="#D7DADC" transform="translate(276,537)"/>
<path d="M0 0 C0.99 0.99 1.98 1.98 3 3 C2.34 4.65 1.68 6.3 1 8 C0.01 8 -0.98 8 -2 8 C-2 7.34 -2 6.68 -2 6 C-1.34 5.67 -0.68 5.34 0 5 C0 4.34 0 3.68 0 3 C-0.66 2.67 -1.32 2.34 -2 2 C-1.34 1.34 -0.68 0.68 0 0 Z " fill="#1F3146" transform="translate(164,528)"/>
<path d="M0 0 C0 0.66 0 1.32 0 2 C-1.95216435 3.95216435 -3.53199953 4.84826645 -6 6 C-6.66 5.34 -7.32 4.68 -8 4 C-2.25 0 -2.25 0 0 0 Z " fill="#293441" transform="translate(448,511)"/>
<path d="M0 0 C0.66 0 1.32 0 2 0 C1.34 2.64 0.68 5.28 0 8 C-0.66 8 -1.32 8 -2 8 C-2 7.34 -2 6.68 -2 6 C-2.66 5.67 -3.32 5.34 -4 5 C-2.71937515 3.2925002 -1.38232443 1.62626404 0 0 Z " fill="#222F3F" transform="translate(289,498)"/>
<path d="M0 0 C0.75 1.75 0.75 1.75 1 4 C-0.9375 6.25 -0.9375 6.25 -3 8 C-3.66 7.34 -4.32 6.68 -5 6 C-3.35 4.02 -1.7 2.04 0 0 Z " fill="#242F3C" transform="translate(80,475)"/>
<path d="M0 0 C1.32 0.66 2.64 1.32 4 2 C0.375 5 0.375 5 -3 5 C-1.125 1.125 -1.125 1.125 0 0 Z " fill="#152433" transform="translate(474,244)"/>
<path d="M0 0 C2.9719385 1.12451727 5.33440687 2.22293791 8 4 C6.02 4.66 4.04 5.32 2 6 C1.34 4.02 0.68 2.04 0 0 Z " fill="#253443" transform="translate(354,166)"/>
<path d="M0 0 C2.31 0 4.62 0 7 0 C7 0.66 7 1.32 7 2 C5.35 2 3.7 2 2 2 C1.67 2.99 1.34 3.98 1 5 C0.34 4.67 -0.32 4.34 -1 4 C-0.67 2.68 -0.34 1.36 0 0 Z " fill="#112437" transform="translate(416,137)"/>
<path d="M0 0 C0.99 0.33 1.98 0.66 3 1 C2.01 2.32 1.02 3.64 0 5 C-1.65 4.67 -3.3 4.34 -5 4 C-2.6875 1.9375 -2.6875 1.9375 0 0 Z " fill="#212E40" transform="translate(246,106)"/>
<path d="M0 0 C1.9453125 0.77734375 1.9453125 0.77734375 4.125 1.9375 C5.21167969 2.50791016 5.21167969 2.50791016 6.3203125 3.08984375 C6.87460937 3.39019531 7.42890625 3.69054687 8 4 C7.01 5.485 7.01 5.485 6 7 C5.67 6.34 5.34 5.68 5 5 C2.47266765 4.34444881 2.47266765 4.34444881 0 4 C0 3.34 0 2.68 0 2 C-0.66 1.67 -1.32 1.34 -2 1 C-1.34 0.67 -0.68 0.34 0 0 Z " fill="#DADFE4" transform="translate(395,84)"/>
<path d="M0 0 C-0.33 0.99 -0.66 1.98 -1 3 C-3.91517292 1.92598892 -5.77810176 1.22189824 -8 -1 C-4.59745511 -2.2151946 -3.06748874 -1.86240388 0 0 Z " fill="#D8D9DF" transform="translate(427,75)"/>
<path d="M0 0 C0.33 0.99 0.66 1.98 1 3 C1.66 3.33 2.32 3.66 3 4 C1.02 4.33 -0.96 4.66 -3 5 C-3.33 3.68 -3.66 2.36 -4 1 C-2.68 0.67 -1.36 0.34 0 0 Z " fill="#D9DCDF" transform="translate(404,546)"/>
<path d="M0 0 C0.99 0 1.98 0 3 0 C3.33 1.32 3.66 2.64 4 4 C2.02 4.33 0.04 4.66 -2 5 C-1.34 3.35 -0.68 1.7 0 0 Z " fill="#D8DADF" transform="translate(528,502)"/>
<path d="M0 0 C0.99 0.66 1.98 1.32 3 2 C1.35 3.65 -0.3 5.3 -2 7 C-2.33 5.35 -2.66 3.7 -3 2 C-2.01 1.34 -1.02 0.68 0 0 Z " fill="#1F2A3C" transform="translate(528,498)"/>
<path d="M0 0 C0.99 0.33 1.98 0.66 3 1 C3.33 2.65 3.66 4.3 4 6 C3.34 6 2.68 6 2 6 C1.34 6.99 0.68 7.98 0 9 C0 6.03 0 3.06 0 0 Z " fill="#0B192C" transform="translate(288,374)"/>
<path d="M0 0 C1.5625 1.25 1.5625 1.25 3 3 C2.6875 5.1875 2.6875 5.1875 2 7 C0.35 5.35 -1.3 3.7 -3 2 C-2.01 1.34 -1.02 0.68 0 0 Z " fill="#212D3E" transform="translate(285,366)"/>
<path d="M0 0 C1.5 1.25 1.5 1.25 3 3 C3 4.32 3 5.64 3 7 C1.68 7 0.36 7 -1 7 C-1 6.01 -1 5.02 -1 4 C-1.66 3.34 -2.32 2.68 -3 2 C-2.01 1.34 -1.02 0.68 0 0 Z " fill="#D9DADC" transform="translate(379,304)"/>
<path d="M0 0 C3.77545388 1.09068668 6.47043472 1.9083091 9 5 C7.02 5 5.04 5 3 5 C2.67 4.01 2.34 3.02 2 2 C1.34 2 0.68 2 0 2 C0 1.34 0 0.68 0 0 Z " fill="#1A2432" transform="translate(313,264)"/>
<path d="M0 0 C2.09749995 2.35968744 2.96905704 3.54616994 3.1875 6.75 C3.0946875 7.86375 3.0946875 7.86375 3 9 C2.67 8.34 2.34 7.68 2 7 C1.34 7 0.68 7 0 7 C0 4.69 0 2.38 0 0 Z " fill="#182433" transform="translate(211,228)"/>
<path d="M0 0 C3.96 1.98 3.96 1.98 8 4 C6.02 4.99 6.02 4.99 4 6 C2 4.6875 2 4.6875 0 3 C0 2.01 0 1.02 0 0 Z " fill="#222E3D" transform="translate(329,151)"/>
<path d="M0 0 C2.625 1.25 2.625 1.25 5 3 C5 3.99 5 4.98 5 6 C3.68 5.34 2.36 4.68 1 4 C1 3.34 1 2.68 1 2 C0.01 1.67 -0.98 1.34 -2 1 C-1.34 0.67 -0.68 0.34 0 0 Z " fill="#252F3E" transform="translate(168,91)"/>
<path d="M0 0 C1.485 0.99 1.485 0.99 3 2 C3.99 2 4.98 2 6 2 C6.66 2.66 7.32 3.32 8 4 C5.75 4.75 5.75 4.75 3 5 C0.6875 3.0625 0.6875 3.0625 -1 1 C-0.67 0.67 -0.34 0.34 0 0 Z " fill="#242F3F" transform="translate(96,84)"/>
<path d="M0 0 C0.33 1.32 0.66 2.64 1 4 C-0.8125 4.625 -0.8125 4.625 -3 5 C-3.99 4.34 -4.98 3.68 -6 3 C-3 1 -3 1 0 0 Z " fill="#243243" transform="translate(159,543)"/>
<path d="M0 0 C0.66 0 1.32 0 2 0 C2.33 0.99 2.66 1.98 3 3 C3.66 3.33 4.32 3.66 5 4 C5 4.66 5 5.32 5 6 C3.125 5.75 3.125 5.75 1 5 C-0.25 2.9375 -0.25 2.9375 -1 1 C-0.67 0.67 -0.34 0.34 0 0 Z " fill="#CCD1D9" transform="translate(454,530)"/>
<path d="M0 0 C0.66 0 1.32 0 2 0 C2.33 2.31 2.66 4.62 3 7 C2.01 7 1.02 7 0 7 C0 4.69 0 2.38 0 0 Z " fill="#D6DBE0" transform="translate(313,499)"/>
<path d="M0 0 C2.38564077 0.57584432 4.66682784 1.22227595 7 2 C6.67 3.32 6.34 4.64 6 6 C1.125 2.25 1.125 2.25 0 0 Z " fill="#263141" transform="translate(233,492)"/>
<path d="M0 0 C0.33 0 0.66 0 1 0 C1.25 2.3125 1.25 2.3125 1 5 C-1 6.8125 -1 6.8125 -3 8 C-2.25 2.25 -2.25 2.25 0 0 Z " fill="#D5DADF" transform="translate(445,481)"/>
<path d="M0 0 C0.99 0 1.98 0 3 0 C1.63016497 3.16115776 1.0109362 3.9927092 -2 6 C-2 2 -2 2 0 0 Z " fill="#293443" transform="translate(85,469)"/>
<path d="M0 0 C0.33 0.66 0.66 1.32 1 2 C1.66 2 2.32 2 3 2 C2.34 3.32 1.68 4.64 1 6 C0.01 6 -0.98 6 -2 6 C-1.34 4.02 -0.68 2.04 0 0 Z " fill="#243345" transform="translate(287,381)"/>
<path d="M0 0 C1.32 0.33 2.64 0.66 4 1 C2.90554162 1.86657116 1.79902219 2.71792724 0.6875 3.5625 C0.07261719 4.03816406 -0.54226563 4.51382812 -1.17578125 5.00390625 C-1.77777344 5.33261719 -2.37976563 5.66132813 -3 6 C-3.99 5.67 -4.98 5.34 -6 5 C-5.195625 4.54625 -4.39125 4.0925 -3.5625 3.625 C-0.91143428 2.25274335 -0.91143428 2.25274335 0 0 Z " fill="#15202F" transform="translate(394,292)"/>
<path d="M0 0 C2.29013653 3.4352048 2.17842973 4.985331 2 9 C1.34 9 0.68 9 0 9 C-1.125 2.25 -1.125 2.25 0 0 Z " fill="#303A49" transform="translate(214,235)"/>
<path d="M0 0 C0.33 0.66 0.66 1.32 1 2 C1.99 2.33 2.98 2.66 4 3 C4 4.65 4 6.3 4 8 C3.01 8 2.02 8 1 8 C0.67 5.36 0.34 2.72 0 0 Z " fill="#152234" transform="translate(197,184)"/>
<path d="M0 0 C2.91517292 1.07401108 4.77810176 1.77810176 7 4 C5.02 4.33 3.04 4.66 1 5 C0.67 3.35 0.34 1.7 0 0 Z " fill="#D7D9E0" transform="translate(291,153)"/>
<path d="M0 0 C2.75 0.25 2.75 0.25 5 1 C2.64031256 3.09749995 1.45383006 3.96905704 -1.75 4.1875 C-2.86375 4.0946875 -2.86375 4.0946875 -4 4 C-2.3125 1.9375 -2.3125 1.9375 0 0 Z " fill="#222E42" transform="translate(451,137)"/>
<path d="M0 0 C2.4375 0.75 2.4375 0.75 5 2 C5.8125 4.125 5.8125 4.125 6 6 C5.34 6 4.68 6 4 6 C3.67 5.34 3.34 4.68 3 4 C2.01 4 1.02 4 0 4 C0 2.68 0 1.36 0 0 Z " fill="#132131" transform="translate(456,97)"/>
<path d="M0 0 C0.99 0 1.98 0 3 0 C3.33 0.66 3.66 1.32 4 2 C4.66 2 5.32 2 6 2 C5.67 3.32 5.34 4.64 5 6 C2.5 4.6875 2.5 4.6875 0 3 C0 2.01 0 1.02 0 0 Z " fill="#D5D8DD" transform="translate(440,84)"/>
<path d="M0 0 C0.66 0.33 1.32 0.66 2 1 C0.25 3.0625 0.25 3.0625 -2 5 C-4.25 4.75 -4.25 4.75 -6 4 C-4.02610343 2.02610343 -2.56269497 1.04109483 0 0 Z " fill="#CED3DB" transform="translate(247,545)"/>
<path d="M0 0 C1.9375 0.3125 1.9375 0.3125 4 1 C4.33 1.99 4.66 2.98 5 4 C4.34 4.66 3.68 5.32 3 6 C0 2.25 0 2.25 0 0 Z " fill="#D4D9DF" transform="translate(97,516)"/>
<path d="M0 0 C2.4375 0.8125 2.4375 0.8125 5 2 C5.33 2.99 5.66 3.98 6 5 C5.34 5.66 4.68 6.32 4 7 C2.02 3.535 2.02 3.535 0 0 Z " fill="#DCE0E6" transform="translate(89,505)"/>
<path d="M0 0 C0.66 0.33 1.32 0.66 2 1 C0.7260411 3.03833424 -0.61061923 5.03852126 -2 7 C-2.66 7 -3.32 7 -4 7 C-2.92598892 4.08482708 -2.22189824 2.22189824 0 0 Z " fill="#CFD6DE" transform="translate(294,495)"/>
<path d="M0 0 C0.99 0.33 1.98 0.66 3 1 C2.01 2.98 1.02 4.96 0 7 C-0.66 6.34 -1.32 5.68 -2 5 C-1.46428571 1.46428571 -1.46428571 1.46428571 0 0 Z " fill="#202F40" transform="translate(84,492)"/>
<path d="M0 0 C0.33 0.66 0.66 1.32 1 2 C1.66 2 2.32 2 3 2 C2.67 2.99 2.34 3.98 2 5 C1.34 5 0.68 5 0 5 C-1.33783393 5.31478446 -2.67203709 5.64587656 -4 6 C-2.68 4.02 -1.36 2.04 0 0 Z " fill="#CACCD0" transform="translate(114,458)"/>
<path d="M0 0 C1.65 0 3.3 0 5 0 C2.63707344 2.52588702 1.33537489 3.88820837 -2 5 C-1.34 3.35 -0.68 1.7 0 0 Z " fill="#2A3442" transform="translate(427,402)"/>
<path d="M0 0 C1.32 1.65 2.64 3.3 4 5 C3.01 6.32 2.02 7.64 1 9 C0.29925156 5.846632 0 3.27275026 0 0 Z " fill="#D4D8DF" transform="translate(250,396)"/>
<path d="M0 0 C1 3 1 3 0 6 C-0.66 6 -1.32 6 -2 6 C-2 6.66 -2 7.32 -2 8 C-2.66 8 -3.32 8 -4 8 C-3.40072174 4.64404172 -2.15377564 2.62198774 0 0 Z " fill="#24313F" transform="translate(421,383)"/>
<path d="M0 0 C2.88437779 1.29299694 4.87219421 2.65941363 7 5 C6.01 5.495 6.01 5.495 5 6 C3.2925002 4.71937515 1.62626404 3.38232443 0 2 C0 1.34 0 0.68 0 0 Z " fill="#C6CAD4" transform="translate(267,384)"/>
<path d="M0 0 C2.91517292 1.07401108 4.77810176 1.77810176 7 4 C5.1875 4.6875 5.1875 4.6875 3 5 C1.25 3.6875 1.25 3.6875 0 2 C0 1.34 0 0.68 0 0 Z " fill="#D4DADE" transform="translate(329,297)"/>
<path d="M0 0 C1.32 0 2.64 0 4 0 C3.67 1.65 3.34 3.3 3 5 C1.35 4.67 -0.3 4.34 -2 4 C-1.34 2.68 -0.68 1.36 0 0 Z " fill="#132337" transform="translate(401,285)"/>
<path d="M0 0 C0.598125 0.20625 1.19625 0.4125 1.8125 0.625 C1.1525 1.945 0.4925 3.265 -0.1875 4.625 C-0.5175 3.965 -0.8475 3.305 -1.1875 2.625 C-3.21213255 1.97286708 -3.21213255 1.97286708 -5.1875 1.625 C-2.1875 -0.375 -2.1875 -0.375 0 0 Z " fill="#D9DCE0" transform="translate(416.1875,283.375)"/>
<path d="M0 0 C0.66 1.65 1.32 3.3 2 5 C-0.91517292 3.92598892 -2.77810176 3.22189824 -5 1 C-3 0 -3 0 0 0 Z " fill="#D2D5DB" transform="translate(308,256)"/>
<path d="M0 0 C3 2 3 2 3.6875 4.625 C3.8421875 5.800625 3.8421875 5.800625 4 7 C2.68 6.34 1.36 5.68 0 5 C0 3.35 0 1.7 0 0 Z " fill="#DCE0E6" transform="translate(188,225)"/>
<path d="M0 0 C0.99 0 1.98 0 3 0 C4.16552619 4.19589427 4.08954032 4.82091936 2 9 C1.34 6.03 0.68 3.06 0 0 Z " fill="#D7DBDF" transform="translate(177,189)"/>
<path d="M0 0 C0.33 0.99 0.66 1.98 1 3 C0.01 3.33 -0.98 3.66 -2 4 C-2.66 3.67 -3.32 3.34 -4 3 C-4.33 3.66 -4.66 4.32 -5 5 C-5.66 4.34 -6.32 3.68 -7 3 C-2.25 0 -2.25 0 0 0 Z " fill="#DCDEE4" transform="translate(407,167)"/>
<path d="M0 0 C0.66 0.33 1.32 0.66 2 1 C2.33 1.99 2.66 2.98 3 4 C3.66 4.33 4.32 4.66 5 5 C5 5.66 5 6.32 5 7 C2.08482708 5.92598892 0.22189824 5.22189824 -2 3 C-1.34 2.01 -0.68 1.02 0 0 Z " fill="#D8DCE2" transform="translate(374,44)"/>
</svg>
